<?xml version="1.0" encoding="utf-8"?>
<!-- Generator: Adobe Illustrator 25.2.0, SVG Export Plug-In . SVG Version: 6.00 Build 0)  -->
<svg version="1.1" xmlns="http://www.w3.org/2000/svg" xmlns:xlink="http://www.w3.org/1999/xlink" x="0px" y="0px"
	 viewBox="0 0 2475 1650" style="enable-background:new 0 0 2475 1650;" xml:space="preserve">
<style type="text/css">
	.st0{fill:#FFFFFF;}
	.st1{fill:url(#SVGID_1_);}
	.st2{fill:#91B3FA;}
	.st3{fill:url(#SVGID_2_);}
	.st4{fill:url(#SVGID_3_);}
	.st5{fill:url(#SVGID_4_);}
	.st6{opacity:0.64;}
	.st7{fill:#BDD0FB;}
	.st8{fill:#DCE5FE;}
	.st9{opacity:0.91;}
	.st10{fill:#7D97F4;}
	.st11{fill:url(#SVGID_5_);}
	.st12{fill:url(#SVGID_6_);}
	.st13{fill:url(#SVGID_7_);}
	.st14{fill:url(#SVGID_8_);}
	.st15{fill:url(#SVGID_9_);}
	.st16{fill:url(#SVGID_10_);}
	.st17{fill:url(#SVGID_11_);}
	.st18{fill:url(#SVGID_12_);}
	.st19{fill:url(#SVGID_13_);}
	.st20{fill:url(#SVGID_14_);}
	.st21{fill:url(#SVGID_15_);}
	.st22{fill:url(#SVGID_16_);}
	.st23{fill:url(#SVGID_17_);}
	.st24{fill:url(#SVGID_18_);}
	.st25{fill:url(#SVGID_19_);}
	.st26{fill:url(#SVGID_20_);}
	.st27{fill:url(#SVGID_21_);}
	.st28{fill:url(#SVGID_22_);}
	.st29{fill:url(#SVGID_23_);}
	.st30{fill:url(#SVGID_24_);}
	.st31{fill:url(#SVGID_25_);}
	.st32{fill:url(#SVGID_26_);}
	.st33{fill:url(#SVGID_27_);}
	.st34{fill:url(#SVGID_28_);}
	.st35{fill:url(#SVGID_29_);}
	.st36{fill:url(#SVGID_30_);}
	.st37{fill:url(#SVGID_31_);}
	.st38{fill:url(#SVGID_32_);}
	.st39{fill:url(#SVGID_33_);}
	.st40{fill:url(#SVGID_34_);}
	.st41{fill:url(#SVGID_35_);}
	.st42{fill:url(#SVGID_36_);}
	.st43{fill:url(#SVGID_37_);}
	.st44{fill:url(#SVGID_38_);}
	.st45{fill:url(#SVGID_39_);}
	.st46{fill:url(#SVGID_40_);}
	.st47{fill:url(#SVGID_41_);}
	.st48{fill:url(#SVGID_42_);}
	.st49{fill:url(#SVGID_43_);}
	.st50{fill:url(#SVGID_44_);}
	.st51{fill:url(#SVGID_45_);}
	.st52{fill:url(#SVGID_46_);}
	.st53{fill:url(#SVGID_47_);}
	.st54{fill:url(#SVGID_48_);}
	.st55{fill:url(#SVGID_49_);}
	.st56{fill:url(#SVGID_50_);}
	.st57{fill:url(#SVGID_51_);}
	.st58{fill:url(#SVGID_52_);}
	.st59{fill:url(#SVGID_53_);}
	.st60{fill:url(#SVGID_54_);}
	.st61{fill:url(#SVGID_55_);}
	.st62{fill:url(#SVGID_56_);}
	.st63{fill:url(#SVGID_57_);}
	.st64{fill:url(#SVGID_58_);}
	.st65{fill:url(#SVGID_59_);}
	.st66{fill:url(#SVGID_60_);}
	.st67{fill:url(#SVGID_61_);}
	.st68{fill:url(#SVGID_62_);}
	.st69{fill:url(#SVGID_63_);}
	.st70{fill:url(#SVGID_64_);}
	.st71{fill:url(#SVGID_65_);}
	.st72{fill:url(#SVGID_66_);}
	.st73{fill:url(#SVGID_67_);}
	.st74{fill:url(#SVGID_68_);}
	.st75{fill:url(#SVGID_69_);}
	.st76{fill:url(#SVGID_70_);}
	.st77{fill:url(#SVGID_71_);}
	.st78{fill:url(#SVGID_72_);}
	.st79{fill:url(#SVGID_73_);}
	.st80{fill:url(#SVGID_74_);}
	.st81{fill:url(#SVGID_75_);}
	.st82{fill:url(#SVGID_76_);}
	.st83{fill:url(#SVGID_77_);}
	.st84{fill:url(#SVGID_78_);}
</style>
<g id="Background">
	<rect class="st0" width="2475" height="1650"/>
</g>
<g id="Illustration">
	<g>
		
			<linearGradient id="SVGID_1_" gradientUnits="userSpaceOnUse" x1="-1615.6261" y1="817.9446" x2="545.9221" y2="817.9446" gradientTransform="matrix(-1 0 0 1 702.648 0)">
			<stop  offset="0" style="stop-color:#DAE3FE"/>
			<stop  offset="1" style="stop-color:#E9EFFD"/>
		</linearGradient>
		<path class="st1" d="M1755.21,190.11c126.98,147.54,567.67-16.37,563.03,255.65c-5.43,318.51-191,477.81-89.51,721.69
			c94.67,227.49-223.41,389.16-786.97,384.44C878.2,1547.16-28.4,1266.21,190.02,961.06c218.42-305.15,72.89-320.8,62.24-455.66
			C241.6,370.54,352.1,74.73,788.57,321.42S1433.64-183.5,1755.21,190.11z"/>
		<g>
			
				<ellipse transform="matrix(0.0985 -0.9951 0.9951 0.0985 1087.8134 2045.2173)" class="st2" cx="1672.77" cy="422.18" rx="87.66" ry="87.66"/>
			
				<ellipse transform="matrix(0.0813 -0.9967 0.9967 0.0813 1316.1406 2272.2451)" class="st2" cx="1890.65" cy="422.18" rx="87.66" ry="87.66"/>
			
				<ellipse transform="matrix(0.1248 -0.9922 0.9922 0.1248 1423.593 2464.0225)" class="st2" cx="2108.52" cy="425.05" rx="87.66" ry="87.66"/>
			<g>
				<linearGradient id="SVGID_2_" gradientUnits="userSpaceOnUse" x1="1856.1279" y1="98.3515" x2="1691.1115" y2="392.3808">
					<stop  offset="0" style="stop-color:#FE7062"/>
					<stop  offset="1" style="stop-color:#FF928E"/>
				</linearGradient>
				<path class="st3" d="M1724.86,403.66c2.71,6.6,4.22,13.82,4.22,21.4c0,31.1-25.21,56.31-56.31,56.31
					c-31.1,0-56.31-25.21-56.31-56.31c0-31.1,25.21-56.31,56.31-56.31c0.95,0,1.9,0.03,2.84,0.07v-14.27
					c-0.94-0.04-1.89-0.06-2.84-0.06c-38.98,0-70.57,31.6-70.57,70.57c0,38.98,31.6,70.57,70.57,70.57
					c38.98,0,70.57-31.6,70.57-70.57c0-9.6-1.92-18.74-5.39-27.09L1724.86,403.66z"/>
				<linearGradient id="SVGID_3_" gradientUnits="userSpaceOnUse" x1="1975.4291" y1="286.162" x2="1717.403" y2="685.202">
					<stop  offset="0" style="stop-color:#FE7062"/>
					<stop  offset="1" style="stop-color:#FF928E"/>
				</linearGradient>
				<path class="st4" d="M1919.69,472.7c-8.69,5.48-18.97,8.67-30,8.67c-31.1,0-56.31-25.21-56.31-56.31
					c0-31.1,25.21-56.31,56.31-56.31c0.95,0,1.9,0.03,2.84,0.07v-14.27c-0.94-0.04-1.89-0.06-2.84-0.06
					c-38.98,0-70.57,31.6-70.57,70.57c0,38.98,31.6,70.57,70.57,70.57c13.6,0,26.3-3.85,37.08-10.52L1919.69,472.7z"/>
				<linearGradient id="SVGID_4_" gradientUnits="userSpaceOnUse" x1="2195.0598" y1="227.5912" x2="2042.0447" y2="575.6264">
					<stop  offset="0" style="stop-color:#FE7062"/>
					<stop  offset="1" style="stop-color:#FF928E"/>
				</linearGradient>
				<path class="st5" d="M2155.51,456.71c-10.13,14.88-27.21,24.65-46.57,24.65c-31.1,0-56.31-25.21-56.31-56.31
					c0-31.1,25.21-56.31,56.31-56.31c0.95,0,1.9,0.03,2.84,0.07v-14.27c-0.94-0.04-1.89-0.06-2.84-0.06
					c-38.98,0-70.57,31.6-70.57,70.57c0,38.98,31.6,70.57,70.57,70.57c24.11,0,45.4-12.1,58.13-30.55L2155.51,456.71z"/>
			</g>
			<g class="st6">
				<path class="st2" d="M1744.2,546.98h-142.86c-8.97,0-16.24,7.27-16.24,16.24c0,8.97,7.27,16.24,16.24,16.24h142.86
					c8.97,0,16.24-7.27,16.24-16.24C1760.44,554.25,1753.17,546.98,1744.2,546.98z"/>
				<path class="st2" d="M1962.07,546.98h-142.86c-8.97,0-16.24,7.27-16.24,16.24c0,8.97,7.27,16.24,16.24,16.24h142.86
					c8.97,0,16.24-7.27,16.24-16.24C1978.31,554.25,1971.04,546.98,1962.07,546.98z"/>
				<path class="st2" d="M2037.09,579.45h142.86c8.97,0,16.24-7.27,16.24-16.24c0-8.97-7.27-16.24-16.24-16.24h-142.86
					c-8.97,0-16.24,7.27-16.24,16.24C2020.85,572.19,2028.12,579.45,2037.09,579.45z"/>
				<path class="st2" d="M1744.2,597.49h-142.86c-8.97,0-16.24,7.27-16.24,16.24v95.61c0,8.97,7.27,16.24,16.24,16.24h142.86
					c8.97,0,16.24-7.27,16.24-16.24v-95.61C1760.44,604.76,1753.17,597.49,1744.2,597.49z"/>
				<path class="st2" d="M1962.07,597.49h-142.86c-8.97,0-16.24,7.27-16.24,16.24v95.61c0,8.97,7.27,16.24,16.24,16.24h142.86
					c8.97,0,16.24-7.27,16.24-16.24v-95.61C1978.31,604.76,1971.04,597.49,1962.07,597.49z"/>
				<path class="st2" d="M2179.94,597.49h-142.86c-8.97,0-16.24,7.27-16.24,16.24v95.61c0,8.97,7.27,16.24,16.24,16.24h142.86
					c8.97,0,16.24-7.27,16.24-16.24v-95.61C2196.18,604.76,2188.91,597.49,2179.94,597.49z"/>
			</g>
		</g>
		<g>
			<path class="st7" d="M941.89,1325.08c0,0-397.4,69.3-537.32-208.04C276.64,863.48,274.19,602.41,274.71,559.49
				c0.03-2.69-2.65-4.57-5.16-3.6c-12.42,4.77-43.17,9.37-53.08-55.73c-12.52-82.29-2.13-228.43,39.94-248.08
				c42.07-19.65,55.39,82.74,49.33,171.47c-6.06,88.73-7.82,123.98-7.82,123.98S228.47,1409.82,941.89,1325.08z"/>
			<path class="st8" d="M259.29,535.95c-0.25,0-0.5-0.03-0.76-0.1c-9.82-2.5-18.44-10.71-23.07-21.96c-3.98-9.68-4.8-20-5.35-30.61
				c-2.62-50.88,0.27-102.16,8.57-152.42c3-18.14,8.77-40,27-48.14c1.54-0.69,3.35,0,4.04,1.54c0.69,1.54,0,3.35-1.54,4.04
				c-15.56,6.95-20.71,26.93-23.46,43.56c-8.23,49.83-11.09,100.67-8.5,151.11c0.52,10.05,1.28,19.81,4.9,28.6
				c3.9,9.47,10.97,16.34,18.92,18.36c1.64,0.42,2.62,2.08,2.21,3.71C261.89,535.03,260.65,535.95,259.29,535.95z"/>
		</g>
		<g>
			<path class="st7" d="M378.13,705.98c0,0-36.01-26.59-8.04-118.17c24.6-80.56,51.85-130.97,86.47-116.74
				c34.62,14.23-22.7,181.92-65.65,234.23c0,0-84.8,807.76,556.69,796.67C947.6,1501.97,345.69,1622.03,378.13,705.98z"/>
			<path class="st8" d="M380.04,675.05c-1.12,0-2.2-0.62-2.74-1.69c-16.47-33.05,10.69-123.29,44.15-175.97
				c2.57-4.04,19.76-19.32,27.07-17.02c7.41,2.33,7.94,11.49,6.15,18.62c-4.23,16.83-11.26,32.69-20.9,47.12
				c-0.94,1.4-2.83,1.78-4.24,0.84c-1.4-0.94-1.78-2.83-0.84-4.24c9.25-13.85,15.99-29.07,20.05-45.22c1-3.97,1.27-10.26-2.06-11.3
				c-3.17-0.37-17.37,10.2-20.08,14.46c-35.68,56.17-57.81,141.95-43.84,169.97c0.75,1.51,0.14,3.34-1.37,4.1
				C380.96,674.95,380.5,675.05,380.04,675.05z"/>
		</g>
		<g class="st9">
			<path class="st7" d="M517.41,355.11c105.7,68.5,704.57,492.23,407.88,1125.62c0,0-466.06-177.47-424.33-1117.18
				C501.33,355.32,510.51,350.63,517.41,355.11z"/>
			<path class="st8" d="M561.58,473.71c0,0,34.03,49.88,82.05,126.64c5.97,9.61,12.2,19.62,18.64,29.99
				c6.36,10.41,12.94,21.17,19.7,32.24c13.42,22.19,27.51,45.64,41.75,70.09c14.33,24.4,28.8,49.8,43.37,75.7
				c7.19,13,14.44,26.1,21.72,39.26c7.12,13.24,14.41,26.46,21.44,39.82c7.02,13.36,14.17,26.66,20.97,40.07
				c3.43,6.69,6.86,13.36,10.28,20.02c3.41,6.66,6.68,13.36,10.01,20.01c3.31,6.65,6.6,13.28,9.88,19.88
				c3.2,6.64,6.38,13.24,9.54,19.8c6.4,13.09,12.41,26.17,18.36,39.02c11.88,25.7,22.86,50.79,32.87,74.75
				c9.98,23.97,19.01,46.82,26.81,68.12c4.07,10.58,7.54,20.89,10.9,30.67c1.68,4.89,3.32,9.65,4.92,14.28
				c1.54,4.65,2.9,9.21,4.29,13.61c2.7,8.82,5.43,17.01,7.59,24.69c2.13,7.7,4.08,14.77,5.84,21.16c0.88,3.2,1.7,6.22,2.48,9.07
				c0.68,2.87,1.31,5.57,1.9,8.08c1.18,5.01,2.18,9.28,3,12.74c1.63,6.92,2.5,10.61,2.5,10.61c0.52,2.19-0.84,4.38-3.03,4.9
				c-2.19,0.52-4.38-0.84-4.9-3.03l0-0.02l-0.04-0.17c0,0-0.84-3.66-2.42-10.51c-0.79-3.43-1.76-7.65-2.91-12.62
				c-0.57-2.49-1.19-5.16-1.84-8.01c-0.76-2.83-1.57-5.83-2.42-9c-1.72-6.34-3.62-13.37-5.69-21.01
				c-2.11-7.63-4.78-15.79-7.42-24.56c-1.36-4.37-2.69-8.91-4.2-13.54c-1.56-4.61-3.17-9.35-4.82-14.22
				c-3.3-9.74-6.69-20-10.7-30.56c-7.65-21.23-16.53-44.03-26.36-67.96c-9.86-23.93-20.68-48.99-32.41-74.68
				c-5.87-12.84-11.8-25.92-18.13-39.01c-3.12-6.56-6.26-13.17-9.42-19.8c-3.24-6.6-6.5-13.23-9.77-19.88
				c-3.29-6.65-6.53-13.35-9.9-20.02c-3.38-6.66-6.77-13.34-10.16-20.03c-6.72-13.42-13.79-26.73-20.74-40.11
				c-6.95-13.37-14.17-26.61-21.21-39.86c-7.21-13.17-14.38-26.29-21.5-39.31c-14.43-25.93-28.76-51.38-42.96-75.83
				c-14.11-24.5-28.07-47.99-41.37-70.23c-6.7-11.09-13.22-21.87-19.53-32.31c-6.39-10.38-12.55-20.42-18.48-30.05
				c-11.91-19.23-22.93-36.79-32.8-52.29c-9.85-15.51-18.54-28.97-25.73-40.03c-14.4-22.11-22.83-34.6-22.83-34.6
				c-0.53-0.79-0.33-1.86,0.46-2.4S561.05,472.92,561.58,473.71z"/>
		</g>
		<g>
			<path class="st7" d="M2273.53,536.14c9.44,128.65,33.8,879.56-666.74,1028.99c0,0-143.29-490.22,649.68-1037.2
				C2263.4,523.14,2272.91,527.73,2273.53,536.14z"/>
			<path class="st8" d="M2203.97,645.52c0,0-19.68,58.62-52.66,145.28c-4.15,10.82-8.48,22.09-12.96,33.76
				c-4.57,11.63-9.29,23.66-14.14,36.02c-9.82,24.68-20.25,50.67-31.41,77.42c-11.06,26.78-22.85,54.31-34.98,82.21
				c-6.17,13.91-12.38,27.93-18.62,42c-6.41,14-12.69,28.12-19.25,42.12c-6.57,13.99-13.01,28.05-19.75,41.89
				c-3.34,6.94-6.67,13.86-9.99,20.77c-3.33,6.9-6.78,13.72-10.14,20.54c-3.39,6.82-6.76,13.6-10.12,20.36
				c-3.44,6.71-6.87,13.39-10.27,20.03c-6.73,13.32-13.69,26.31-20.5,39.11c-13.64,25.59-27.33,50.07-40.71,73.05
				c-13.4,22.97-26.47,44.47-39.04,64c-6.12,9.87-12.4,19.07-18.3,27.86c-2.95,4.4-5.82,8.68-8.62,12.84
				c-2.84,4.13-5.73,8.06-8.45,11.92c-5.53,7.66-10.53,14.95-15.46,21.47c-4.97,6.49-9.54,12.46-13.66,17.85
				c-2.07,2.69-4.02,5.24-5.87,7.63c-1.93,2.33-3.74,4.51-5.42,6.55c-3.36,4.06-6.23,7.52-8.55,10.32
				c-4.64,5.61-7.12,8.59-7.12,8.59c-1.43,1.73-4,1.97-5.73,0.54c-1.73-1.43-1.97-4-0.54-5.73l0.01-0.01l0.11-0.13
				c0,0,2.46-2.95,7.08-8.48c2.31-2.76,5.16-6.17,8.51-10.18c1.68-2,3.48-4.16,5.4-6.46c1.84-2.37,3.79-4.88,5.85-7.54
				c4.12-5.33,8.67-11.22,13.63-17.64c4.93-6.45,9.93-13.67,15.46-21.25c2.73-3.82,5.61-7.71,8.46-11.8
				c2.8-4.13,5.68-8.37,8.63-12.73c5.91-8.72,12.19-17.83,18.33-27.63c12.6-19.38,25.72-40.72,39.18-63.55
				c13.44-22.84,27.2-47.18,40.93-72.64c6.85-12.74,13.86-25.66,20.64-38.92c3.43-6.61,6.88-13.26,10.34-19.94
				c3.38-6.73,6.78-13.48,10.19-20.27c3.39-6.8,6.86-13.59,10.22-20.46c3.35-6.88,6.7-13.78,10.07-20.69
				c6.8-13.79,13.29-27.79,19.92-41.73c6.62-13.94,12.96-28.02,19.43-41.97c6.3-14.03,12.57-28,18.8-41.86
				c12.25-27.81,24.16-55.25,35.34-81.96c11.27-26.66,21.82-52.59,31.75-77.19c4.91-12.33,9.68-24.32,14.3-35.92
				c4.53-11.63,8.91-22.88,13.11-33.67c8.33-21.61,15.85-41.46,22.4-59.11c6.57-17.63,12.18-33.05,16.77-45.76
				c9.15-25.43,14.13-40.03,14.13-40.03c0.31-0.9,1.29-1.38,2.19-1.08C2203.79,643.64,2204.28,644.61,2203.97,645.52z"/>
		</g>
		<g>
			<path class="st7" d="M217.86,1101.6c-2.93-5.5,3.47-11.28,8.63-7.79c49.88,33.78,183.43,118.26,290.82,132.22
				c174.85,22.72,371.81,133.16,384.41,265.96C901.72,1491.99,537.15,1700.72,217.86,1101.6z"/>
			<path class="st8" d="M281.58,1156.03c0,0,0.46,0.42,1.36,1.22c0.91,0.76,2.26,1.89,4.03,3.36c3.59,2.98,8.97,7.23,15.8,12.66
				c6.86,5.39,15.21,11.9,24.92,19.21c9.66,7.37,20.75,15.44,32.79,24.3c12.12,8.77,25.26,18.23,39.37,27.95
				c14.05,9.81,29.1,19.8,44.67,30.13c15.64,10.23,31.85,20.72,48.57,30.97c4.18,2.57,8.37,5.15,12.58,7.73
				c4.24,2.53,8.5,5.06,12.76,7.6c8.49,5.14,17.17,10.04,25.79,15.02c8.62,5,17.41,9.68,26.04,14.57
				c8.74,4.7,17.44,9.38,26.07,14.03c8.73,4.45,17.33,9.01,25.95,13.25c4.31,2.11,8.6,4.21,12.86,6.29
				c4.25,2.1,8.49,4.15,12.74,6.08c16.9,7.92,33.42,15.19,49.2,21.79c15.77,6.63,30.91,12.35,44.93,17.47
				c7.06,2.43,13.83,4.75,20.26,6.96c6.46,2.12,12.65,3.98,18.43,5.81c2.9,0.9,5.7,1.77,8.41,2.61c2.73,0.75,5.37,1.46,7.9,2.16
				c5.07,1.38,9.72,2.65,13.92,3.8c8.45,2.12,15.14,3.58,19.68,4.68c4.55,1.07,6.97,1.64,6.97,1.64l0.04,0.01
				c0.55,0.13,0.89,0.68,0.76,1.22c-0.13,0.54-0.65,0.87-1.19,0.77c0,0-2.45-0.49-7.05-1.4c-4.59-0.96-11.37-2.15-19.9-4.09
				c-4.25-1.04-8.96-2.2-14.08-3.46c-2.56-0.63-5.23-1.28-8-1.96c-2.74-0.77-5.58-1.57-8.51-2.4c-5.85-1.7-12.13-3.37-18.67-5.39
				c-6.5-2.12-13.34-4.35-20.48-6.68c-14.18-4.92-29.48-10.43-45.44-16.85c-16-6.32-32.62-13.57-49.65-21.45
				c-4.28-1.91-8.55-3.95-12.83-6.04c-4.29-2.07-8.61-4.16-12.95-6.25c-8.69-4.21-17.34-8.75-26.13-13.17
				c-8.69-4.62-17.46-9.28-26.25-13.95c-8.7-4.85-17.47-9.67-26.11-14.7c-8.63-5.04-17.32-10-25.82-15.19
				c-4.27-2.57-8.52-5.13-12.77-7.69c-4.21-2.61-8.41-5.22-12.58-7.82c-16.73-10.36-32.95-20.95-48.58-31.28
				c-15.54-10.47-30.44-20.77-44.41-30.77c-14.01-9.93-27.06-19.6-39.08-28.54c-23.95-18.02-43.42-33.68-56.92-44.79
				c-6.73-5.58-11.96-10.04-15.49-13.13c-1.76-1.51-3.15-2.8-4.07-3.61c-0.88-0.84-1.33-1.27-1.33-1.27
				c-0.41-0.39-0.42-1.03-0.03-1.44c0.38-0.4,1.01-0.42,1.41-0.05L281.58,1156.03z"/>
		</g>
		<g>
			<rect x="246.12" y="929.4" class="st10" width="33.03" height="242.54"/>
			<rect x="301.3" y="1012.76" class="st10" width="33.03" height="159.18"/>
			<rect x="356.49" y="806.75" class="st10" width="33.03" height="365.2"/>
			<rect x="411.67" y="1084.21" class="st10" width="33.03" height="87.73"/>
			<rect x="466.85" y="855.57" class="st10" width="33.03" height="316.37"/>
			<rect x="522.03" y="910.35" class="st10" width="33.03" height="261.6"/>
			<rect x="577.22" y="969.89" class="st10" width="33.03" height="202.05"/>
			<rect x="632.4" y="732.92" class="st10" width="33.03" height="439.03"/>
			<rect x="687.58" y="779.36" class="st10" width="33.03" height="392.59"/>
			<rect x="742.77" y="849.62" class="st10" width="33.03" height="322.33"/>
			<rect x="797.95" y="1092.35" class="st10" width="33.03" height="79.59"/>
		</g>
		<g>
			<path class="st2" d="M1905.56,538.62c-1.34-5.25-8.85-5.21-10.12,0.06c-12.24,50.96-48.52,183.58-109.34,255.53
				c-99.04,117.15-160.84,303.63-91.05,396.36C1695.05,1190.57,2051.75,1110.88,1905.56,538.62z"/>
			<path class="st8" d="M1898.44,611.02c0,0-0.04,0.54-0.1,1.6c-0.11,1.07-0.27,2.65-0.49,4.72c-0.44,4.06-1.17,9.99-2.21,17.53
				c-2.14,15.06-5.42,36.55-10.21,62.19c-2.47,12.81-5.17,26.67-8.33,41.28c-3.1,14.62-6.62,29.99-10.45,45.84
				c-3.99,15.81-8.19,32.13-12.86,48.61c-1.16,4.12-2.33,8.26-3.5,12.41c-1.23,4.13-2.46,8.28-3.69,12.43
				c-2.41,8.32-5.09,16.61-7.67,24.91c-2.6,8.3-5.41,16.54-8.15,24.77c-2.92,8.16-5.82,16.3-8.7,24.37
				c-3.06,8-5.96,15.99-9.08,23.79c-3.18,7.78-6.11,15.54-9.37,23.02c-6.33,15.05-12.76,29.47-19.36,42.91
				c-6.51,13.48-13.13,25.99-19.37,37.47c-3.23,5.68-6.32,11.12-9.26,16.3c-3.02,5.13-6.09,9.88-8.86,14.4
				c-1.4,2.25-2.76,4.43-4.08,6.53c-1.38,2.06-2.72,4.04-4,5.95c-2.56,3.81-4.92,7.31-7.04,10.47c-4.36,6.25-8.03,10.98-10.42,14.28
				c-2.43,3.28-3.72,5.03-3.72,5.03c-0.33,0.45-0.97,0.55-1.42,0.21c-0.44-0.33-0.54-0.94-0.24-1.39l0.03-0.04
				c0,0,1.22-1.79,3.51-5.15c2.26-3.38,5.69-8.25,9.86-14.57c2.02-3.2,4.26-6.75,6.7-10.62c1.22-1.93,2.48-3.94,3.8-6.02
				c1.24-2.13,2.53-4.34,3.86-6.61c2.63-4.57,5.51-9.39,8.41-14.55c2.83-5.2,5.81-10.66,8.91-16.36c6-11.52,12.35-24.07,18.58-37.59
				c6.24-13.5,12.59-27.86,18.8-42.86c3.2-7.46,6.07-15.21,9.19-22.96c3.05-7.78,5.89-15.75,8.89-23.73
				c2.82-8.05,5.66-16.16,8.51-24.3c2.67-8.21,5.58-16.37,8.19-24.63c2.62-8.26,5.32-16.49,7.77-24.77
				c1.25-4.13,2.5-8.25,3.74-12.36c1.19-4.13,2.37-8.24,3.55-12.34c4.74-16.39,9.01-32.64,13.06-48.37
				c3.95-15.76,7.78-31.01,11.07-45.54c3.38-14.52,6.29-28.3,8.95-41.04c2.55-12.76,4.96-24.44,6.87-34.83
				c1.97-10.39,3.53-19.47,4.79-26.95c1.22-7.49,2.2-13.37,2.76-17.39c0.28-1.97,0.49-3.49,0.63-4.5c0.1-1.04,0.16-1.58,0.16-1.58
				l0.01-0.11c0.06-0.56,0.55-0.97,1.11-0.91C1898.07,609.99,1898.47,610.47,1898.44,611.02z"/>
		</g>
		<g>
			<g>
				<linearGradient id="SVGID_5_" gradientUnits="userSpaceOnUse" x1="1715.6368" y1="405.9094" x2="613.377" y2="1853.697">
					<stop  offset="0" style="stop-color:#09005D"/>
					<stop  offset="1" style="stop-color:#1A0F91"/>
				</linearGradient>
				<path class="st11" d="M925.11,384.61h695.36c38.36,0,70,30.06,71.95,68.38l51.33,1008.15c1.53,29.98-22.07,55.27-52.09,55.82
					l-796.98,14.48c-28.2,0.51-51.34-22.21-51.34-50.42V466.38C843.34,421.22,879.95,384.61,925.11,384.61z"/>
				<linearGradient id="SVGID_6_" gradientUnits="userSpaceOnUse" x1="867.8792" y1="1418.0605" x2="1013.0621" y2="1418.0605">
					<stop  offset="0" style="stop-color:#DAE3FE"/>
					<stop  offset="1" style="stop-color:#E9EFFD"/>
				</linearGradient>
				<path class="st12" d="M1011.16,1514.3c-0.01,0-0.02,0-0.03,0l-89.18-1.15c-29.82-0.39-54.08-24.96-54.08-54.78v-134.64
					c0-1.05,0.85-1.9,1.9-1.9c1.05,0,1.9,0.85,1.9,1.9v134.64c0,27.75,22.57,50.61,50.32,50.97l89.18,1.15
					c1.05,0.01,1.89,0.88,1.88,1.93C1013.05,1513.46,1012.2,1514.3,1011.16,1514.3z"/>
				<linearGradient id="SVGID_7_" gradientUnits="userSpaceOnUse" x1="867.8792" y1="1271.1169" x2="871.6868" y2="1271.1169">
					<stop  offset="0" style="stop-color:#DAE3FE"/>
					<stop  offset="1" style="stop-color:#E9EFFD"/>
				</linearGradient>
				<path class="st13" d="M869.78,1283.92c-1.05,0-1.9-0.85-1.9-1.9v-21.8c0-1.05,0.85-1.9,1.9-1.9c1.05,0,1.9,0.85,1.9,1.9v21.8
					C871.69,1283.07,870.83,1283.92,869.78,1283.92z"/>
				<g>
					<linearGradient id="SVGID_8_" gradientUnits="userSpaceOnUse" x1="751.0952" y1="1729.0487" x2="1562.0844" y2="532.5547">
						<stop  offset="0" style="stop-color:#4042E2"/>
						<stop  offset="1" style="stop-color:#4F52FF"/>
					</linearGradient>
					<path class="st14" d="M927.24,376.44c94.96,12.88,421.5,52.7,691.47,31.98c12.31-0.95,23,8.38,23.65,20.71l53.82,1012.64
						c0.74,13.89-9.86,25.76-23.74,26.58c-113.55,6.72-581.17,32.7-747.96,15.23c-10.15-1.06-17.86-9.61-17.92-19.82L900.3,400.13
						C900.22,385.68,912.93,374.5,927.24,376.44z"/>
					<path class="st7" d="M937.42,402.71c91.38,12.39,405.62,50.72,665.43,30.78c11.85-0.91,22.13,8.07,22.76,19.93l51.79,974.51
						c0.71,13.36-9.49,24.79-22.85,25.58c-109.27,6.47-559.29,31.46-719.8,14.65c-9.77-1.02-17.18-9.25-17.24-19.07l-6.02-1023.58
						C911.41,411.6,923.64,400.84,937.42,402.71z"/>
					<linearGradient id="SVGID_9_" gradientUnits="userSpaceOnUse" x1="996.0695" y1="605.1393" x2="1261.5458" y2="605.1393">
						<stop  offset="0" style="stop-color:#DAE3FE"/>
						<stop  offset="1" style="stop-color:#E9EFFD"/>
					</linearGradient>
					<path class="st15" d="M996.09,500.64l9.71,208.93c0.32,6.95,5.94,12.47,12.89,12.67c38.69,1.09,159.26,4.03,227.34,0.48
						c7.7-0.4,13.79-6.63,14.05-14.34c1.3-39.18,4.14-153.22-4.79-200.89c-1.44-7.7-8.06-13.34-15.89-13.62l-228.7-8
						C1002.44,485.58,995.7,492.4,996.09,500.64z"/>
					<linearGradient id="SVGID_10_" gradientUnits="userSpaceOnUse" x1="1181.4836" y1="495.2417" x2="842.6014" y2="999.757">
						<stop  offset="0" style="stop-color:#FE7062"/>
						<stop  offset="1" style="stop-color:#FF928E"/>
					</linearGradient>
					<circle class="st16" cx="1127.69" cy="575.33" r="44.91"/>
					<linearGradient id="SVGID_11_" gradientUnits="userSpaceOnUse" x1="1239.3556" y1="534.1145" x2="900.4732" y2="1038.6301">
						<stop  offset="0" style="stop-color:#FE7062"/>
						<stop  offset="1" style="stop-color:#FF928E"/>
					</linearGradient>
					<path class="st17" d="M1059.47,707.2h143.09c8.77,0,14.03-9.69,9.3-17.08c-12.15-19.02-37.58-46.96-81.62-45.7
						c-42.44,1.22-67.6,26.45-80.25,44.55C1044.62,696.66,1050.09,707.2,1059.47,707.2z"/>
					<linearGradient id="SVGID_12_" gradientUnits="userSpaceOnUse" x1="1310.036" y1="509.4727" x2="1576.299" y2="509.4727">
						<stop  offset="0" style="stop-color:#DAE3FE"/>
						<stop  offset="1" style="stop-color:#E9EFFD"/>
					</linearGradient>
					<path class="st18" d="M1572.41,518.83c2.2,0,3.95-1.8,3.88-4l-0.18-6.02c-0.06-2.2-1.92-4.03-4.12-4.07l-259.08-4.62
						c-2.2-0.04-3.4,1.63-2.67,3.7l3.96,11.23c0.73,2.07,3.13,3.77,5.33,3.77H1572.41z"/>
					<linearGradient id="SVGID_13_" gradientUnits="userSpaceOnUse" x1="1310.036" y1="548.4213" x2="1576.299" y2="548.4213">
						<stop  offset="0" style="stop-color:#DAE3FE"/>
						<stop  offset="1" style="stop-color:#E9EFFD"/>
					</linearGradient>
					<path class="st19" d="M1312.92,539.07c-2.2-0.04-3.4,1.63-2.67,3.7l3.96,11.23c0.73,2.08,3.13,3.77,5.33,3.77h252.88
						c2.2,0,3.95-1.8,3.88-4l-0.18-6.02c-0.06-2.2-1.92-4.03-4.12-4.07L1312.92,539.07z"/>
					<linearGradient id="SVGID_14_" gradientUnits="userSpaceOnUse" x1="1310.036" y1="587.936" x2="1576.299" y2="587.936">
						<stop  offset="0" style="stop-color:#DAE3FE"/>
						<stop  offset="1" style="stop-color:#E9EFFD"/>
					</linearGradient>
					<path class="st20" d="M1312.92,578.58c-2.2-0.04-3.4,1.63-2.67,3.7l3.96,11.23c0.73,2.08,3.13,3.77,5.33,3.77h252.88
						c2.2,0,3.95-1.8,3.88-4l-0.18-6.02c-0.06-2.2-1.92-4.03-4.12-4.07L1312.92,578.58z"/>
					<linearGradient id="SVGID_15_" gradientUnits="userSpaceOnUse" x1="997.8003" y1="778.4771" x2="1600.5189" y2="778.4771">
						<stop  offset="0" style="stop-color:#DAE3FE"/>
						<stop  offset="1" style="stop-color:#E9EFFD"/>
					</linearGradient>
					<path class="st21" d="M1596.77,787.85c2.2,0,3.88-1.8,3.74-3.99l-0.4-6.03c-0.14-2.2-2.06-4.01-4.26-4.02l-595.83-4.7
						c-2.2-0.02-2.88,1.38-1.51,3.1l9.97,12.52c1.37,1.72,4.29,3.13,6.49,3.13H1596.77z"/>
					<linearGradient id="SVGID_16_" gradientUnits="userSpaceOnUse" x1="997.8003" y1="817.4257" x2="1600.5189" y2="817.4257">
						<stop  offset="0" style="stop-color:#DAE3FE"/>
						<stop  offset="1" style="stop-color:#E9EFFD"/>
					</linearGradient>
					<path class="st22" d="M1000.02,808.05c-2.2-0.02-2.88,1.38-1.51,3.1l9.97,12.52c1.37,1.72,4.29,3.13,6.49,3.13h581.81
						c2.2,0,3.88-1.8,3.74-3.99l-0.4-6.03c-0.14-2.2-2.06-4.01-4.26-4.02L1000.02,808.05z"/>
					<linearGradient id="SVGID_17_" gradientUnits="userSpaceOnUse" x1="992.8448" y1="908.7702" x2="1075.9263" y2="908.7702">
						<stop  offset="0" style="stop-color:#DAE3FE"/>
						<stop  offset="1" style="stop-color:#E9EFFD"/>
					</linearGradient>
					<path class="st23" d="M1001.51,873.12c14.13-1.08,40.58-1.58,55.14-1.79c6.17-0.09,11.58,4.09,13.03,10.09
						c2.81,11.65,6.69,31.88,6.2,53.32c-0.15,6.42-5.4,11.54-11.83,11.47l-53.74-0.58c-6.61-0.07-12.1-5.12-12.71-11.7l-4.72-50.55
						C992.4,878.15,996.28,873.52,1001.51,873.12z"/>
					<linearGradient id="SVGID_18_" gradientUnits="userSpaceOnUse" x1="1093.2988" y1="906.0062" x2="1243.2278" y2="906.0062">
						<stop  offset="0" style="stop-color:#DAE3FE"/>
						<stop  offset="1" style="stop-color:#E9EFFD"/>
					</linearGradient>
					<path class="st24" d="M1096.75,893.7c-2.2-0.09-3.73,1.61-3.4,3.79l2.53,16.87c0.33,2.18,2.39,3.96,4.59,3.96h138.81
						c2.2,0,3.98-1.8,3.95-4l-0.13-10.5c-0.03-2.2-1.85-4.07-4.05-4.17L1096.75,893.7z"/>
					<linearGradient id="SVGID_19_" gradientUnits="userSpaceOnUse" x1="1285.603" y1="908.7702" x2="1368.6844" y2="908.7702">
						<stop  offset="0" style="stop-color:#DAE3FE"/>
						<stop  offset="1" style="stop-color:#E9EFFD"/>
					</linearGradient>
					<path class="st25" d="M1294.27,873.12c14.13-1.08,40.58-1.58,55.14-1.79c6.17-0.09,11.58,4.09,13.03,10.09
						c2.81,11.65,6.69,31.88,6.2,53.32c-0.15,6.42-5.4,11.54-11.83,11.47l-53.74-0.58c-6.61-0.07-12.09-5.12-12.71-11.7l-4.72-50.55
						C1285.16,878.15,1289.03,873.52,1294.27,873.12z"/>
					<linearGradient id="SVGID_20_" gradientUnits="userSpaceOnUse" x1="1386.0569" y1="906.0062" x2="1535.986" y2="906.0062">
						<stop  offset="0" style="stop-color:#DAE3FE"/>
						<stop  offset="1" style="stop-color:#E9EFFD"/>
					</linearGradient>
					<path class="st26" d="M1389.5,893.7c-2.2-0.09-3.73,1.61-3.4,3.79l2.53,16.87c0.33,2.18,2.39,3.96,4.59,3.96h138.81
						c2.2,0,3.98-1.8,3.95-4l-0.13-10.5c-0.03-2.2-1.85-4.07-4.05-4.17L1389.5,893.7z"/>
					<g>
						<path class="st0" d="M1077.33,1073.69c-0.04,0-0.09,0-0.14,0l-49.59-0.48c-7.08-0.07-12.93-4.94-13.6-11.34l-4.36-41.61
							c-0.26-2.44,0.5-4.86,2.14-6.8c1.83-2.17,4.59-3.54,7.59-3.74l0,0c4.18-0.28,10.06-0.79,16.29-1.32
							c13.11-1.12,29.44-2.51,38.62-2.62c6.66-0.03,12.32,3.91,13.89,9.71c2.58,9.55,2.36,27.63,1.86,46.89
							C1089.87,1068.65,1084.19,1073.69,1077.33,1073.69z M1019.63,1013.53c-1.97,0.13-3.77,1.01-4.93,2.39
							c-0.96,1.14-1.41,2.55-1.26,3.95l4.36,41.61c0.47,4.47,4.7,7.88,9.85,7.93l49.59,0.48c0.03,0,0.07,0,0.1,0
							c4.81,0,8.78-3.39,8.89-7.59c0.48-18.97,0.71-36.74-1.73-45.8c-1.1-4.06-5.32-6.88-10.16-6.9c-9.05,0.11-25.29,1.5-38.35,2.61
							C1029.74,1012.74,1023.84,1013.24,1019.63,1013.53L1019.63,1013.53z"/>
						<linearGradient id="SVGID_21_" gradientUnits="userSpaceOnUse" x1="1018.5749" y1="1040.2872" x2="1080.0583" y2="1040.2872">
							<stop  offset="0" style="stop-color:#DAE3FE"/>
							<stop  offset="1" style="stop-color:#E9EFFD"/>
						</linearGradient>
						<path class="st27" d="M1024.97,1017.82c10.42-0.71,33.06-3.01,43.8-3.14c4.55-0.06,8.54,2.69,9.61,6.64
							c2.07,7.66,1.8,22.94,1.44,37.03c-0.11,4.22-3.99,7.59-8.72,7.55l-39.63-0.38c-4.87-0.05-8.92-3.37-9.37-7.7l-3.48-33.25
							C1018.25,1021.13,1021.1,1018.09,1024.97,1017.82z"/>
						<linearGradient id="SVGID_22_" gradientUnits="userSpaceOnUse" x1="1120.4745" y1="1042.9247" x2="1600.9329" y2="1042.9247">
							<stop  offset="0" style="stop-color:#DAE3FE"/>
							<stop  offset="1" style="stop-color:#E9EFFD"/>
						</linearGradient>
						<path class="st28" d="M1120.89,1046.06c1.44,5.44,6.38,9.22,12.01,9.17l458.8-3.91c5.19-0.04,9.34-4.32,9.23-9.51
							c-0.11-5.05-4.22-9.08-9.27-9.11l-458.82-2.09C1124.75,1030.58,1118.82,1038.23,1120.89,1046.06z"/>
						<linearGradient id="SVGID_23_" gradientUnits="userSpaceOnUse" x1="1172.679" y1="818.7316" x2="919.4695" y2="1250.9006">
							<stop  offset="0" style="stop-color:#FE7062"/>
							<stop  offset="1" style="stop-color:#FF928E"/>
						</linearGradient>
						<path class="st29" d="M1027.08,1024.35L1027.08,1024.35c3.68-2.16,8.42-0.87,10.5,2.86l9.78,17.53
							c0.98,1.76,3.54,1.64,4.36-0.19l24.26-54.01c1.21-2.69,5.22-1.78,5.18,1.17c-0.25,16.52-4.63,47.92-31.03,74.21
							c0,0-14.55-5.65-26.26-31.38C1022.18,1030.82,1023.56,1026.41,1027.08,1024.35z"/>
						<path class="st0" d="M1077.33,1179.97c-0.04,0-0.09,0-0.14,0l-49.59-0.48c-7.08-0.07-12.93-4.94-13.6-11.34l-4.36-41.61
							c-0.26-2.44,0.5-4.86,2.14-6.8c1.83-2.17,4.59-3.54,7.59-3.74l0,0c4.18-0.28,10.06-0.79,16.29-1.32
							c13.11-1.12,29.44-2.51,38.62-2.62c0.07,0,0.13,0,0.2,0c6.52,0,12.13,3.97,13.69,9.71c2.58,9.55,2.36,27.63,1.86,46.89
							C1089.87,1174.93,1084.19,1179.97,1077.33,1179.97z M1019.63,1119.81c-1.97,0.13-3.77,1.01-4.93,2.39
							c-0.96,1.14-1.41,2.55-1.26,3.95l4.36,41.61c0.47,4.47,4.7,7.88,9.85,7.93l49.59,0.48c0.03,0,0.07,0,0.1,0
							c4.81,0,8.78-3.39,8.89-7.59c0.48-18.97,0.71-36.74-1.73-45.8c-1.1-4.06-5.38-6.97-10.16-6.9c-9.05,0.11-25.29,1.5-38.35,2.61
							C1029.74,1119.02,1023.84,1119.52,1019.63,1119.81L1019.63,1119.81z"/>
						<linearGradient id="SVGID_24_" gradientUnits="userSpaceOnUse" x1="1018.5749" y1="1146.5653" x2="1080.0583" y2="1146.5653">
							<stop  offset="0" style="stop-color:#DAE3FE"/>
							<stop  offset="1" style="stop-color:#E9EFFD"/>
						</linearGradient>
						<path class="st30" d="M1024.97,1124.1c10.42-0.71,33.06-3.01,43.8-3.14c4.55-0.06,8.54,2.69,9.61,6.64
							c2.07,7.66,1.8,22.94,1.44,37.03c-0.11,4.22-3.99,7.59-8.72,7.55l-39.63-0.38c-4.87-0.05-8.92-3.37-9.37-7.7l-3.48-33.25
							C1018.25,1127.41,1021.1,1124.36,1024.97,1124.1z"/>
						<linearGradient id="SVGID_25_" gradientUnits="userSpaceOnUse" x1="1120.4745" y1="1149.2028" x2="1600.9329" y2="1149.2028">
							<stop  offset="0" style="stop-color:#DAE3FE"/>
							<stop  offset="1" style="stop-color:#E9EFFD"/>
						</linearGradient>
						<path class="st31" d="M1120.89,1152.34c1.44,5.44,6.38,9.22,12.01,9.17l458.8-3.91c5.19-0.04,9.34-4.32,9.23-9.51
							c-0.11-5.05-4.22-9.08-9.27-9.11l-458.82-2.09C1124.75,1136.85,1118.82,1144.51,1120.89,1152.34z"/>
						<linearGradient id="SVGID_26_" gradientUnits="userSpaceOnUse" x1="1219.0349" y1="845.8911" x2="965.8247" y2="1278.0613">
							<stop  offset="0" style="stop-color:#FE7062"/>
							<stop  offset="1" style="stop-color:#FF928E"/>
						</linearGradient>
						<path class="st32" d="M1027.08,1130.63L1027.08,1130.63c3.68-2.16,8.42-0.87,10.5,2.86l9.78,17.53
							c0.98,1.76,3.54,1.64,4.36-0.19l24.26-54.01c1.21-2.69,5.22-1.78,5.18,1.17c-0.25,16.52-4.63,47.92-31.03,74.21
							c0,0-14.55-5.65-26.26-31.38C1022.18,1137.1,1023.56,1132.69,1027.08,1130.63z"/>
						<path class="st0" d="M1077.33,1286.25c-0.04,0-0.09,0-0.14,0l-49.59-0.48c-7.08-0.07-12.93-4.94-13.6-11.34l-4.36-41.61
							c-0.26-2.44,0.5-4.86,2.14-6.8c1.83-2.17,4.59-3.54,7.59-3.74l0,0c4.18-0.28,10.06-0.79,16.29-1.32
							c13.11-1.12,29.44-2.51,38.62-2.62c0.07,0,0.13,0,0.2,0c6.52,0,12.13,3.97,13.69,9.71c2.58,9.55,2.36,27.63,1.86,46.89
							C1089.87,1281.2,1084.19,1286.25,1077.33,1286.25z M1019.63,1226.08c-1.97,0.13-3.77,1.01-4.93,2.39
							c-0.96,1.14-1.41,2.55-1.26,3.95l4.36,41.61c0.47,4.47,4.7,7.88,9.85,7.93l49.59,0.48c0.03,0,0.07,0,0.1,0
							c4.81,0,8.78-3.39,8.89-7.59c0.48-18.97,0.71-36.74-1.73-45.8c-1.1-4.06-5.38-6.99-10.16-6.9c-9.05,0.11-25.29,1.5-38.35,2.61
							C1029.74,1225.29,1023.84,1225.8,1019.63,1226.08L1019.63,1226.08z"/>
						<linearGradient id="SVGID_27_" gradientUnits="userSpaceOnUse" x1="1018.5749" y1="1252.8435" x2="1080.0583" y2="1252.8435">
							<stop  offset="0" style="stop-color:#DAE3FE"/>
							<stop  offset="1" style="stop-color:#E9EFFD"/>
						</linearGradient>
						<path class="st33" d="M1024.97,1230.38c10.42-0.71,33.06-3.01,43.8-3.14c4.55-0.06,8.54,2.69,9.61,6.64
							c2.07,7.66,1.8,22.94,1.44,37.03c-0.11,4.22-3.99,7.59-8.72,7.55l-39.63-0.38c-4.87-0.05-8.92-3.37-9.37-7.7l-3.48-33.25
							C1018.25,1233.69,1021.1,1230.64,1024.97,1230.38z"/>
						<linearGradient id="SVGID_28_" gradientUnits="userSpaceOnUse" x1="1120.4745" y1="1255.481" x2="1600.9329" y2="1255.481">
							<stop  offset="0" style="stop-color:#DAE3FE"/>
							<stop  offset="1" style="stop-color:#E9EFFD"/>
						</linearGradient>
						<path class="st34" d="M1120.89,1258.62c1.44,5.44,6.38,9.22,12.01,9.17l458.8-3.91c5.19-0.04,9.34-4.32,9.23-9.51
							c-0.11-5.04-4.22-9.08-9.27-9.11l-458.82-2.09C1124.75,1243.13,1118.82,1250.79,1120.89,1258.62z"/>
						<linearGradient id="SVGID_29_" gradientUnits="userSpaceOnUse" x1="1258.0114" y1="952.4266" x2="924.8407" y2="1416.9614">
							<stop  offset="0" style="stop-color:#FE7062"/>
							<stop  offset="1" style="stop-color:#FF928E"/>
						</linearGradient>
						<path class="st35" d="M1027.08,1236.9L1027.08,1236.9c3.68-2.16,8.42-0.87,10.5,2.86l9.78,17.53
							c0.98,1.76,3.54,1.64,4.36-0.19l24.26-54.01c1.21-2.69,5.22-1.78,5.18,1.17c-0.25,16.52-4.63,47.92-31.03,74.21
							c0,0-14.55-5.65-26.26-31.38C1022.18,1243.38,1023.56,1238.97,1027.08,1236.9z"/>
						<path class="st0" d="M1077.33,1392.53c-0.04,0-0.09,0-0.14,0l-49.59-0.48c-7.08-0.07-12.93-4.94-13.6-11.34l-4.36-41.61
							c-0.26-2.44,0.5-4.86,2.14-6.8c1.83-2.17,4.59-3.54,7.59-3.74l0,0c4.18-0.28,10.06-0.79,16.29-1.32
							c13.11-1.12,29.44-2.51,38.62-2.62c0.07,0,0.13,0,0.2,0c6.52,0,12.13,3.97,13.69,9.71c2.58,9.55,2.36,27.63,1.86,46.89
							C1089.87,1387.48,1084.19,1392.53,1077.33,1392.53z M1019.63,1332.36c-1.97,0.13-3.77,1.01-4.93,2.39
							c-0.96,1.14-1.41,2.55-1.26,3.95l4.36,41.61c0.47,4.47,4.7,7.88,9.85,7.93l49.59,0.48c0.03,0,0.07,0,0.1,0
							c4.81,0,8.78-3.39,8.89-7.59c0.48-18.97,0.71-36.74-1.73-45.8c-1.1-4.06-5.38-7-10.16-6.9c-9.05,0.11-25.29,1.5-38.35,2.61
							C1029.74,1331.57,1023.84,1332.07,1019.63,1332.36L1019.63,1332.36z"/>
						<linearGradient id="SVGID_30_" gradientUnits="userSpaceOnUse" x1="1018.5749" y1="1359.1217" x2="1080.0583" y2="1359.1217">
							<stop  offset="0" style="stop-color:#DAE3FE"/>
							<stop  offset="1" style="stop-color:#E9EFFD"/>
						</linearGradient>
						<path class="st36" d="M1024.97,1336.66c10.42-0.71,33.06-3.01,43.8-3.14c4.55-0.06,8.54,2.69,9.61,6.64
							c2.07,7.66,1.8,22.94,1.44,37.03c-0.11,4.22-3.99,7.59-8.72,7.55l-39.63-0.38c-4.87-0.05-8.92-3.37-9.37-7.7l-3.48-33.25
							C1018.25,1339.97,1021.1,1336.92,1024.97,1336.66z"/>
						<linearGradient id="SVGID_31_" gradientUnits="userSpaceOnUse" x1="1120.4745" y1="1361.7592" x2="1600.9329" y2="1361.7592">
							<stop  offset="0" style="stop-color:#DAE3FE"/>
							<stop  offset="1" style="stop-color:#E9EFFD"/>
						</linearGradient>
						<path class="st37" d="M1120.89,1364.9L1120.89,1364.9c1.44,5.44,6.38,9.22,12.01,9.17l458.8-3.91
							c5.19-0.04,9.34-4.32,9.23-9.51c-0.11-5.04-4.22-9.08-9.27-9.11l-458.82-2.09C1124.75,1349.41,1118.82,1357.07,1120.89,1364.9
							z"/>
						<linearGradient id="SVGID_32_" gradientUnits="userSpaceOnUse" x1="1311.7463" y1="900.2107" x2="1058.5364" y2="1332.3806">
							<stop  offset="0" style="stop-color:#FE7062"/>
							<stop  offset="1" style="stop-color:#FF928E"/>
						</linearGradient>
						<path class="st38" d="M1027.08,1343.18L1027.08,1343.18c3.68-2.16,8.42-0.87,10.5,2.86l9.78,17.53
							c0.98,1.76,3.54,1.64,4.36-0.19l24.26-54.01c1.21-2.69,5.22-1.78,5.18,1.17c-0.25,16.52-4.63,47.92-31.03,74.21
							c0,0-14.55-5.65-26.26-31.38C1022.18,1349.66,1023.56,1345.25,1027.08,1343.18z"/>
					</g>
				</g>
				<linearGradient id="SVGID_33_" gradientUnits="userSpaceOnUse" x1="1393.4961" y1="143.361" x2="1073.653" y2="564.1072">
					<stop  offset="0" style="stop-color:#09005D"/>
					<stop  offset="1" style="stop-color:#1A0F91"/>
				</linearGradient>
				<path class="st39" d="M1315.92,247.16c-25.12-17.47-46.96-17.13-62.33-12.59c-14.02,4.14-23.11,17.68-21.78,32.24l6.63,72.37
					l78.9,7C1317.33,346.18,1365.17,281.43,1315.92,247.16z M1281.22,305.54c-10.87,0-19.67-8.81-19.67-19.67
					c0-10.87,8.81-19.67,19.67-19.67s19.67,8.81,19.67,19.67C1300.89,296.73,1292.08,305.54,1281.22,305.54z"/>
				<linearGradient id="SVGID_34_" gradientUnits="userSpaceOnUse" x1="1241.4259" y1="275.6277" x2="1292.6593" y2="275.6277">
					<stop  offset="0" style="stop-color:#DAE3FE"/>
					<stop  offset="1" style="stop-color:#E9EFFD"/>
				</linearGradient>
				<path class="st40" d="M1246.31,308.73c-0.97,0-1.8-0.74-1.89-1.73l-1.06-11.53c-0.1-1.05,0.67-1.97,1.72-2.07
					c1.07-0.1,1.97,0.67,2.07,1.72l1.06,11.53c0.1,1.05-0.67,1.97-1.72,2.07C1246.43,308.73,1246.37,308.73,1246.31,308.73z
					 M1244.24,286.15c-0.97,0-1.8-0.74-1.89-1.73l-0.8-8.75c-1.27-13.87,7.46-26.79,20.75-30.71c9.42-2.78,19.12-3.18,28.84-1.18
					c1.03,0.21,1.69,1.22,1.48,2.25c-0.21,1.03-1.21,1.69-2.25,1.48c-9.1-1.86-18.18-1.49-26.99,1.11
					c-11.56,3.41-19.15,14.65-18.04,26.71l0.8,8.75c0.1,1.05-0.67,1.97-1.72,2.07C1244.36,286.14,1244.3,286.15,1244.24,286.15z"/>
				<linearGradient id="SVGID_35_" gradientUnits="userSpaceOnUse" x1="1428.5803" y1="170.0307" x2="1108.7371" y2="590.777">
					<stop  offset="0" style="stop-color:#09005D"/>
					<stop  offset="1" style="stop-color:#1A0F91"/>
				</linearGradient>
				<path class="st41" d="M1130.75,385.94v-36.38c0-12.56,10.41-22.62,22.96-22.19l250.86,8.59c11.13,0.38,20.15,9.17,20.82,20.29
					l2.1,34.96L1130.75,385.94z"/>
				<linearGradient id="SVGID_36_" gradientUnits="userSpaceOnUse" x1="1211.5986" y1="339.175" x2="1226.1945" y2="339.175">
					<stop  offset="0" style="stop-color:#DAE3FE"/>
					<stop  offset="1" style="stop-color:#E9EFFD"/>
				</linearGradient>
				<path class="st42" d="M1224.29,341.08h-10.79c-1.05,0-1.9-0.85-1.9-1.9c0-1.05,0.85-1.9,1.9-1.9h10.79c1.05,0,1.9,0.85,1.9,1.9
					C1226.19,340.23,1225.34,341.08,1224.29,341.08z"/>
				<linearGradient id="SVGID_37_" gradientUnits="userSpaceOnUse" x1="1142.4259" y1="355.8948" x2="1204.6173" y2="355.8948">
					<stop  offset="0" style="stop-color:#DAE3FE"/>
					<stop  offset="1" style="stop-color:#E9EFFD"/>
				</linearGradient>
				<path class="st43" d="M1144.33,374.52c-1.05,0-1.9-0.85-1.9-1.9V357.9c0-11.37,9.25-20.62,20.62-20.62h39.66
					c1.05,0,1.9,0.85,1.9,1.9c0,1.05-0.85,1.9-1.9,1.9h-39.66c-9.27,0-16.82,7.54-16.82,16.82v14.72
					C1146.23,373.67,1145.38,374.52,1144.33,374.52z"/>
				<linearGradient id="SVGID_38_" gradientUnits="userSpaceOnUse" x1="1388.2745" y1="195.7673" x2="1167.4296" y2="601.2834">
					<stop  offset="0" style="stop-color:#4042E2"/>
					<stop  offset="1" style="stop-color:#4F52FF"/>
				</linearGradient>
				<path class="st44" d="M1052.15,372.63l438.67-0.01c15.77,0,29.26,11.35,31.95,26.89l0.37,2.14
					c2.95,17.02-10.16,32.59-27.44,32.59h-450.05c-10.34,0-18.58-8.65-18.08-18.97l0.97-20.14
					C1029.14,382.53,1039.53,372.63,1052.15,372.63z"/>
			</g>
			<g>
				<linearGradient id="SVGID_39_" gradientUnits="userSpaceOnUse" x1="1884.0356" y1="1531.4498" x2="1919.8683" y2="1306.0514">
					<stop  offset="0" style="stop-color:#4042E2"/>
					<stop  offset="1" style="stop-color:#4F52FF"/>
				</linearGradient>
				<rect x="1888.69" y="1360.4" class="st45" width="16.58" height="179.29"/>
				<linearGradient id="SVGID_40_" gradientUnits="userSpaceOnUse" x1="1898.0349" y1="1533.088" x2="1934.8615" y2="1301.438">
					<stop  offset="0" style="stop-color:#4042E2"/>
					<stop  offset="1" style="stop-color:#4F52FF"/>
				</linearGradient>
				<path class="st46" d="M1969.58,1543.14h-145.21v-6.46c0-2.39,1.94-4.33,4.33-4.33h136.21c2.58,0,4.67,2.09,4.67,4.67V1543.14z"
					/>
				<linearGradient id="SVGID_41_" gradientUnits="userSpaceOnUse" x1="1870.7194" y1="1529.3333" x2="1906.552" y2="1303.9344">
					<stop  offset="0" style="stop-color:#4042E2"/>
					<stop  offset="1" style="stop-color:#4F52FF"/>
				</linearGradient>
				<path class="st47" d="M1991.13,1354.17c0,9.81-8.02,17.83-17.83,17.83h-146.91c-9.81,0-17.83-8.02-17.83-17.83v-16.12
					c0-9.81,8.02-17.83,17.83-17.83h146.91c9.81,0,17.83,8.02,17.83,17.83V1354.17z"/>
			</g>
			<g>
				<g>
					<linearGradient id="SVGID_42_" gradientUnits="userSpaceOnUse" x1="1800.0132" y1="1451.0719" x2="1816.6798" y2="1553.0718">
						<stop  offset="0" style="stop-color:#FF928E"/>
						<stop  offset="1" style="stop-color:#FEB3B1"/>
					</linearGradient>
					<path class="st48" d="M1774.59,1240.85c0,0-24.64,3.82-52.33,22.33c-4.36,2.91-6.75,7.99-6.09,13.2
						c3.32,26.27,16.95,111.3,61.92,194.35c2.37,4.38,3.05,9.48,2.01,14.35l-7.81,36.36l-14.49,13.58h37.32l24.85-67.24l-10.62-3.36
						c-8.24-2.6-13.89-10.18-14.04-18.82l-1.25-72.13c1.06-32.14-19.7-54.31-19.7-54.31l59.6-2.9L1774.59,1240.85z"/>
					<linearGradient id="SVGID_43_" gradientUnits="userSpaceOnUse" x1="1788.1779" y1="1464.749" x2="1770.8395" y2="1730.6042">
						<stop  offset="0" style="stop-color:#09005D"/>
						<stop  offset="1" style="stop-color:#1A0F91"/>
					</linearGradient>
					<path class="st49" d="M1743.21,1541.58c-3.4,4.45,36.58,10.32,56.78,0.59c0,0,28-48.71,28-73.79c0,0-2.22-5.11-18.66-3.95
						c0,0-9.4,57.68-19.33,64.14c-9.93,6.46-27.77,0.65-27.77,0.65S1748.23,1535.02,1743.21,1541.58z"/>
					<linearGradient id="SVGID_44_" gradientUnits="userSpaceOnUse" x1="1641.7228" y1="1455.4966" x2="1794.3894" y2="1313.4968">
						<stop  offset="0" style="stop-color:#FF928E"/>
						<stop  offset="1" style="stop-color:#FEB3B1"/>
					</linearGradient>
					<path class="st50" d="M1826.39,1320.22c-0.32-0.55-64.16-7.68-64.16-7.68s2.09,19.41-4.44,46.14
						c-6.53,26.72-100.27,142.51-100.27,142.51l9.83,31.16c-30.39,10.59-60.29,12.28-89.7,5.4l60.92-36.56
						c0,0,57.01-194.28,91.93-228.94l64-22.14L1826.39,1320.22z"/>
					<linearGradient id="SVGID_45_" gradientUnits="userSpaceOnUse" x1="1731.1284" y1="1266.2256" x2="2009.8014" y2="1266.2256">
						<stop  offset="0" style="stop-color:#09005D"/>
						<stop  offset="1" style="stop-color:#1A0F91"/>
					</linearGradient>
					<path class="st51" d="M1969.58,1207.18c0,0,36.79,54.71,39.8,79.67c3.02,24.96-10.08,35.1-48.67,36.77
						c-38.6,1.67-141.64,1.65-141.64,1.65l-87.94-75.16c0,0,64.09-22.87,80.75-29.34
						C1828.54,1214.31,1969.58,1207.18,1969.58,1207.18z"/>
					<linearGradient id="SVGID_46_" gradientUnits="userSpaceOnUse" x1="1620.8647" y1="1453.8375" x2="1603.5264" y2="1719.6924">
						<stop  offset="0" style="stop-color:#09005D"/>
						<stop  offset="1" style="stop-color:#1A0F91"/>
					</linearGradient>
					<path class="st52" d="M1663.63,1521.86c0,0,10.58,10.25,3.43,21.65c0,0-83.83,14.86-106.59,8.12c0,0,4.73-10.79,30.35-23.06
						l-1.89,1.45c-2.39,1.84-0.99,5.66,2.02,5.49C1607.85,1534.54,1642.8,1531.45,1663.63,1521.86z"/>
				</g>
				<g>
					<linearGradient id="SVGID_47_" gradientUnits="userSpaceOnUse" x1="2005.7725" y1="903.6863" x2="1910.5151" y2="996.8728">
						<stop  offset="0" style="stop-color:#09005D"/>
						<stop  offset="1" style="stop-color:#1A0F91"/>
					</linearGradient>
					<path class="st53" d="M1892.67,885.68c5.56,1.73,25.59,8.92,23.01,21.81c-0.34,1.71,1.27,3.16,2.95,2.7
						c8.63-2.32,27.7-5.25,39.53,9.56c10.44,13.08,2.64,25.42-3.72,32.2c-1.54,1.64-0.24,4.29,1.98,4.01
						c15.87-2,50.36-2.48,56,29.82c5.26,30.13-15.71,38.62-28.15,41.02c-2.1,0.41-2.6,3.17-0.79,4.32
						c6.2,3.94,13.39,12.07,10.49,28.12c-4.55,25.16-53.88,23.1-59.64,22.77c-0.36-0.02-0.71-0.13-1.03-0.31l-79.01-45.06
						c-0.62-0.35-1.04-0.96-1.16-1.66l-15.95-92.12c-0.13-0.75,0.1-1.51,0.63-2.05l39.57-56.87
						C1868.36,879.03,1891.81,885.41,1892.67,885.68z"/>
					<linearGradient id="SVGID_48_" gradientUnits="userSpaceOnUse" x1="1896.2853" y1="1121.8412" x2="1848.2852" y2="1337.8416">
						<stop  offset="0" style="stop-color:#FE7062"/>
						<stop  offset="1" style="stop-color:#FF928E"/>
					</linearGradient>
					<path class="st54" d="M1867.53,1185.81c0,0-42.84-40.79-63.92-67.81c-11.4-14.6-14.98-33.83-9.71-51.59
						c9.63-32.43,26.74-66.03,28.3-71.26c2.39-8.01,50.42-7.68,50.42-7.68s94.52,61.34,131.65,165.25l-41.71,12.98
						c0,0-24.68-41.4-49.06-67.73c0,0,42.19,55.74,43.68,78.56L1867.53,1185.81z"/>
					<linearGradient id="SVGID_49_" gradientUnits="userSpaceOnUse" x1="1830.8741" y1="928.06" x2="1855.5409" y2="1009.3935">
						<stop  offset="0" style="stop-color:#FF928E"/>
						<stop  offset="1" style="stop-color:#FEB3B1"/>
					</linearGradient>
					<path class="st55" d="M1816.39,950.37c0.5,1.67,13.04,43.23,14.02,44.09s27.49,2.29,39.97-6.24l-23.82-54.17L1816.39,950.37z"
						/>
					<g>
						<linearGradient id="SVGID_50_" gradientUnits="userSpaceOnUse" x1="1784.8826" y1="888.6192" x2="1859.549" y2="928.6191">
							<stop  offset="0" style="stop-color:#FF928E"/>
							<stop  offset="1" style="stop-color:#FEB3B1"/>
						</linearGradient>
						<path class="st56" d="M1812.45,859.06c0,0-19.34,15.15-25.63,50.74c-6.29,35.59,8.76,47.16,23.23,45.38
							c14.47-1.78,35.22-7.74,51.73-34.11C1878.29,894.71,1837.88,840.43,1812.45,859.06z"/>
						
							<linearGradient id="SVGID_51_" gradientUnits="userSpaceOnUse" x1="1285.2019" y1="1074.6355" x2="1189.8112" y2="1167.9525" gradientTransform="matrix(0.9651 -0.2619 0.2619 0.9651 366.606 96.0782)">
							<stop  offset="0" style="stop-color:#09005D"/>
							<stop  offset="1" style="stop-color:#1A0F91"/>
						</linearGradient>
						<path class="st57" d="M1842.4,908.25c0,0,3.95-50.65-37.14-40.09l-7.81,9.35c0,0-21.97-21.53-0.63-40.44
							c21.34-18.91,52.93-16.65,72.44,13.72c19.51,30.37,27.33,52.12,14.19,72.75c-13.14,20.63-25.23,4.56-25.23,4.56
							s5.47-17.44-0.56-24.35c-6.03-6.9-12.35,5.12-12.35,5.12L1842.4,908.25z"/>
						<linearGradient id="SVGID_52_" gradientUnits="userSpaceOnUse" x1="1788.4069" y1="882.4075" x2="1863.0734" y2="922.4074">
							<stop  offset="0" style="stop-color:#FF928E"/>
							<stop  offset="1" style="stop-color:#FEB3B1"/>
						</linearGradient>
						<path class="st58" d="M1843.38,921.85c0,0,1.88-26.05,15.56-19.59s-3.07,24.42-9.86,30.61L1843.38,921.85z"/>
					</g>
					<linearGradient id="SVGID_53_" gradientUnits="userSpaceOnUse" x1="2042.1111" y1="1156.8813" x2="1834.7777" y2="1192.8815">
						<stop  offset="0" style="stop-color:#FF928E"/>
						<stop  offset="1" style="stop-color:#FEB3B1"/>
					</linearGradient>
					<path class="st59" d="M1780.26,1188.84l31.47-30.34l43.54,18.39c0,0,43.34,6.71,68.14,0c24.8-6.71,24.8-6.71,24.8-6.71
						l56.05-17.45l8.8,24.88c2.23,6.32-0.01,13.33-5.47,17.21c-4.85,3.45-10.53,7.23-14.16,8.82c-7.38,3.23-181.96-2.23-181.96-2.23
						L1780.26,1188.84z"/>
				</g>
			</g>
			<g>
				<linearGradient id="SVGID_54_" gradientUnits="userSpaceOnUse" x1="533.6292" y1="1303.1079" x2="369.4286" y2="1674.7203">
					<stop  offset="0" style="stop-color:#4042E2"/>
					<stop  offset="1" style="stop-color:#4F52FF"/>
				</linearGradient>
				<path class="st60" d="M476.42,1333.38c-4.76,7.04-23.68,166.52-26.64,225.42c-0.2,3.98,2.99,7.3,6.97,7.3l0,0
					c3.44,0,6.37-2.51,6.9-5.9l34.6-221.74L476.42,1333.38z"/>
				<linearGradient id="SVGID_55_" gradientUnits="userSpaceOnUse" x1="669.1628" y1="1362.9948" x2="504.962" y2="1734.608">
					<stop  offset="0" style="stop-color:#4042E2"/>
					<stop  offset="1" style="stop-color:#4F52FF"/>
				</linearGradient>
				<path class="st61" d="M628.52,1333.38c4.76,7.04,23.68,166.52,26.64,225.42c0.2,3.98-2.99,7.3-6.97,7.3h0
					c-3.44,0-6.37-2.51-6.9-5.9l-34.6-221.74L628.52,1333.38z"/>
				<linearGradient id="SVGID_56_" gradientUnits="userSpaceOnUse" x1="549.1516" y1="1357.3811" x2="565.1514" y2="1188.3811">
					<stop  offset="0" style="stop-color:#FE7062"/>
					<stop  offset="1" style="stop-color:#FF928E"/>
				</linearGradient>
				<path class="st62" d="M447.8,1320.93l-0.02,1.74c-0.11,12.51,10.66,22.77,24.16,23l159.94,2.72c13.3,0.23,24.39-9.39,25.03-21.7
					l0.08-1.59c0.67-12.85-10.24-23.67-24.11-23.92l-160.01-2.87C459.19,1298.07,447.92,1308.23,447.8,1320.93z"/>
			</g>
			<g>
				<g>
					
						<linearGradient id="SVGID_57_" gradientUnits="userSpaceOnUse" x1="-416.2554" y1="1013.9764" x2="-449.2875" y2="1111.13" gradientTransform="matrix(0.8649 -0.502 0.502 0.8649 625.0107 -123.4994)">
						<stop  offset="0" style="stop-color:#FF928E"/>
						<stop  offset="1" style="stop-color:#FEB3B1"/>
					</linearGradient>
					<path class="st63" d="M821.59,947.37l-4.17-6.78c-2.4-3.9-6.44-6.5-10.98-7.06l-44.35-5.5c0,0-1.97-4.98,6.18-10.88
						c8.15-5.9,3.33-15.5,3.33-15.5s-10.9,8.94-26.67,22.71c-9.02,7.88-12.44,18.48-13.72,26.11l-7.1,15.56
						c3.96,4.67,10.08,8.37,19.4,7.19l1.61-11.91C771.8,962.2,797.16,956.99,821.59,947.37z"/>
					<linearGradient id="SVGID_58_" gradientUnits="userSpaceOnUse" x1="740.945" y1="936.1543" x2="634.0081" y2="1075.6815">
						<stop  offset="0" style="stop-color:#4042E2"/>
						<stop  offset="1" style="stop-color:#4F52FF"/>
					</linearGradient>
					<path class="st64" d="M724.12,966.05l-26.34,57.75c-5.49,12.04-19.35,17.81-31.77,13.22l-53.99-47.99l-1.2,96.34l56.27,11.27
						c31.49,6.31,61.77-15.28,66.09-47.1l10.34-76.3C734.21,974.41,728.08,970.72,724.12,966.05z"/>
				</g>
				<g>
					<linearGradient id="SVGID_59_" gradientUnits="userSpaceOnUse" x1="712.3144" y1="1552.5132" x2="828.2905" y2="1552.5132">
						<stop  offset="0" style="stop-color:#FE7062"/>
						<stop  offset="1" style="stop-color:#FF928E"/>
					</linearGradient>
					<path class="st65" d="M758.95,1553c-28.43,0-41.01-2.44-46.64-4.66c1.09,4.67,5.25,8.36,10.51,8.36H823.4
						c3.39,0,5.53-3.24,4.72-6.18C816.65,1551.44,792.3,1553,758.95,1553z"/>
					<linearGradient id="SVGID_60_" gradientUnits="userSpaceOnUse" x1="801.6692" y1="1329.5045" x2="769.9814" y2="1548.439">
						<stop  offset="0" style="stop-color:#020039"/>
						<stop  offset="1" style="stop-color:#090056"/>
					</linearGradient>
					<path class="st66" d="M828.12,1550.51c-0.16-0.59-0.4-1.17-0.82-1.71c-7.66-9.78-23.05-25.14-43.99-24.85
						c-30.67,0.43-41.36,3.76-65.2,0.19l-5.62,18.64c-0.57,1.9-0.58,3.8-0.17,5.56c5.62,2.22,18.2,4.66,46.64,4.66
						C792.3,1553,816.65,1551.44,828.12,1550.51z"/>
				</g>
				<linearGradient id="SVGID_61_" gradientUnits="userSpaceOnUse" x1="718.1075" y1="1517.5635" x2="749.487" y2="1517.5635">
					<stop  offset="0" style="stop-color:#FF928E"/>
					<stop  offset="1" style="stop-color:#FEB3B1"/>
				</linearGradient>
				<path class="st67" d="M725.01,1504.05l-6.9,23.47c0,0,15.29,6.96,28.74,1.37l2.64-20.34L725.01,1504.05z"/>
				<g>
					<linearGradient id="SVGID_62_" gradientUnits="userSpaceOnUse" x1="894.2167" y1="1529.5295" x2="987.8541" y2="1529.5295">
						<stop  offset="0" style="stop-color:#FE7062"/>
						<stop  offset="1" style="stop-color:#FF928E"/>
					</linearGradient>
					<path class="st68" d="M933.48,1538.22c-22.16,17.81-33.49,23.8-39.26,25.59c3.76,2.94,9.3,3.19,13.4-0.1l78.41-63
						c2.64-2.12,2.29-5.98-0.18-7.75C977.49,1500.86,959.48,1517.33,933.48,1538.22z"/>
					<linearGradient id="SVGID_63_" gradientUnits="userSpaceOnUse" x1="958.6248" y1="1352.2214" x2="926.937" y2="1571.1558">
						<stop  offset="0" style="stop-color:#020039"/>
						<stop  offset="1" style="stop-color:#090056"/>
					</linearGradient>
					<path class="st69" d="M985.85,1492.96c-0.5-0.36-1.05-0.66-1.71-0.81c-12.07-2.79-33.65-5.07-49.78,8.27
						c-23.64,19.55-29.9,28.83-50.71,40.98l7.23,17.98c0.74,1.83,1.91,3.31,3.33,4.42c5.77-1.8,17.1-7.78,39.26-25.59
						C959.48,1517.33,977.49,1500.86,985.85,1492.96z"/>
				</g>
				<linearGradient id="SVGID_64_" gradientUnits="userSpaceOnUse" x1="668.7961" y1="893.9992" x2="668.7961" y2="1099.9993">
					<stop  offset="0" style="stop-color:#020039"/>
					<stop  offset="1" style="stop-color:#090056"/>
				</linearGradient>
				<path class="st70" d="M577.36,1236.61c0,0,170.22,13.9,205.14,30.34c34.92,16.44-28.5,246.83-28.5,246.83s-9.51,4.58-30.66-2
					c0,0,21.69-170.02,5.55-206.89l-184.31-30.15L577.36,1236.61z"/>
				<linearGradient id="SVGID_65_" gradientUnits="userSpaceOnUse" x1="866.7359" y1="1520.2046" x2="904.199" y2="1520.2046">
					<stop  offset="0" style="stop-color:#FF928E"/>
					<stop  offset="1" style="stop-color:#FEB3B1"/>
				</linearGradient>
				<path class="st71" d="M866.74,1509.04c1.58,1.44,16.91,32.36,16.91,32.36s17.07-3.69,20.55-14.5L888.84,1499L866.74,1509.04z"/>
				<linearGradient id="SVGID_66_" gradientUnits="userSpaceOnUse" x1="429.3768" y1="1914.5841" x2="677.3768" y2="1384.583">
					<stop  offset="0" style="stop-color:#09005D"/>
					<stop  offset="1" style="stop-color:#1A0F91"/>
				</linearGradient>
				<path class="st72" d="M474.84,1235.19c0,0-5.55,13.35-5.32,31.08c0.31,24.53,20.03,44.44,44.54,45.66l201.23,9.18
					c4.25,0.19,7.84,3.14,8.91,7.25c4.73,18.29,27.84,74.46,140.82,186.54c3.01,2.98,7.69,3.49,11.27,1.23l16.08-10.16
					c1.69-1.07,2.23-3.28,1.22-5l-117.17-200.08c-6.15-10.16-16.05-17.49-27.55-20.43l-171.51-43.84L474.84,1235.19z"/>
				<linearGradient id="SVGID_67_" gradientUnits="userSpaceOnUse" x1="626.5636" y1="988.1747" x2="382.1359" y2="1397.5916">
					<stop  offset="0" style="stop-color:#4042E2"/>
					<stop  offset="1" style="stop-color:#4F52FF"/>
				</linearGradient>
				<path class="st73" d="M474.3,1234.6c0,0-1.99-99.74,17.94-193.6c7.36-34.66,26.52-65.69,54.36-87.62l9.31-7.34l46.64,18.95
					l30.27,45.96c13.19,26.39,15.03,57.01,5.08,84.79c-16.64,46.44-41.33,116.69-47,140.33
					C590.89,1236.06,513.65,1246.26,474.3,1234.6z"/>
				<linearGradient id="SVGID_68_" gradientUnits="userSpaceOnUse" x1="594.1038" y1="912.0847" x2="558.1038" y2="1027.0844">
					<stop  offset="0" style="stop-color:#FF928E"/>
					<stop  offset="1" style="stop-color:#FEB3B1"/>
				</linearGradient>
				<path class="st74" d="M587.97,871.71l-36.43,84.53c0,0,11.66,26.23,52.47,16.03l14.57-58.29L587.97,871.71z"/>
				<linearGradient id="SVGID_69_" gradientUnits="userSpaceOnUse" x1="708.9345" y1="1075.0171" x2="806.5783" y2="1075.0171">
					<stop  offset="0" style="stop-color:#4042E2"/>
					<stop  offset="1" style="stop-color:#4F52FF"/>
				</linearGradient>
				<path class="st75" d="M708.93,1155.9c0-1.46,46.64-157.4,46.64-157.4l51.01-8.74l-61.21,170.51L708.93,1155.9z"/>
				<linearGradient id="SVGID_70_" gradientUnits="userSpaceOnUse" x1="701.8143" y1="1109.0551" x2="509.8144" y2="1242.0552">
					<stop  offset="0" style="stop-color:#FE7062"/>
					<stop  offset="1" style="stop-color:#FF928E"/>
				</linearGradient>
				<path class="st76" d="M706.02,1160.27c2.91,2.91,32.06,2.91,32.06,2.91l61.21-177.8l-48.09,10.2L706.02,1160.27z"/>
				<g>
					
						<linearGradient id="SVGID_71_" gradientUnits="userSpaceOnUse" x1="-190.9875" y1="2503.6091" x2="-286.5335" y2="2630.0088" gradientTransform="matrix(0.9372 -0.3487 0.3487 0.9372 -51.2187 -1572.7599)">
						<stop  offset="0" style="stop-color:#FF928E"/>
						<stop  offset="1" style="stop-color:#FEB3B1"/>
					</linearGradient>
					<path class="st77" d="M660.18,833.16c0.44,1.18,1.4,84.46,1.4,84.46l-47.56-0.46l-12.64-78.79
						C601.38,838.37,652.82,813.4,660.18,833.16z"/>
					
						<linearGradient id="SVGID_72_" gradientUnits="userSpaceOnUse" x1="-263.9573" y1="2534.0996" x2="-149.8259" y2="2534.0996" gradientTransform="matrix(0.9372 -0.3487 0.3487 0.9372 -51.2187 -1572.7599)">
						<stop  offset="0" style="stop-color:#09005D"/>
						<stop  offset="1" style="stop-color:#1A0F91"/>
					</linearGradient>
					<path class="st78" d="M615.33,853.52l3.41,42c0.04,0.54,0.16,1.06,0.34,1.56c1.15,3.1,5.89,13.48,16.21,7.99
						c9.37-4.98,17.99-9.39,24.73-8.83c3.03,0.25,5.36,2.76,5.39,5.79c0.09,7.57-0.04,24.62-2.4,39.42c-0.48,3-3.2,5.11-6.23,4.9
						c-9.14-0.65-28.38-2.55-43.5-7.71c-2.05-0.7-3.55-2.44-3.92-4.57c-1.79-10.4-7.36-41.99-10.27-50.56
						c-2.73-8.04-13.92-10.79-18.7-11.61c-1.57-0.27-2.94-1.16-3.83-2.48c-3.14-4.66-8.5-15.86,5.33-23.91
						c2.89-1.69,3.81-5.4,2.04-8.24c-3.53-5.66-6.48-14.82,3.91-22.46c10.56-7.77,20.65-3.42,26.46,0.62
						c2.35,1.64,5.48,1.29,7.52-0.72c1.16-1.14,2.84-1.8,5.22-0.94c3.21,1.15,6.69-0.86,7.5-4.17c1.56-6.35,5.94-13.75,17.81-14.26
						c21.07-0.91,28.24,21.11,25.73,35.46c-2.51,14.35-25.41,14.04-37.79,9.76c-9.41-3.26-19.06,4.38-23.15,8.22
						C615.84,850.01,615.18,851.75,615.33,853.52z"/>
					
						<linearGradient id="SVGID_73_" gradientUnits="userSpaceOnUse" x1="-330.9249" y1="2603.7075" x2="-254.2891" y2="2525.0813" gradientTransform="matrix(0.9372 -0.3487 0.3487 0.9372 -51.2187 -1572.7599)">
						<stop  offset="0" style="stop-color:#FF928E"/>
						<stop  offset="1" style="stop-color:#FEB3B1"/>
					</linearGradient>
					<path class="st79" d="M600.47,898.8c0,0,3.3-25.2-6.52-29.07c-9.82-3.87-21.89,1.85-15.43,18.19
						C586.56,908.24,600.47,898.8,600.47,898.8z"/>
				</g>
				<linearGradient id="SVGID_74_" gradientUnits="userSpaceOnUse" x1="666.3347" y1="1011.9185" x2="421.9064" y2="1421.3364">
					<stop  offset="0" style="stop-color:#4042E2"/>
					<stop  offset="1" style="stop-color:#4F52FF"/>
				</linearGradient>
				<path class="st80" d="M725.68,1110.83c-103.54,71.61-147.54-91.74-148.63-92.65c-67.04-55.38-63.84,45.15-55.38,56.84
					c85.65,133.51,185.09,94.73,215.8,53.75C730.15,1122.62,726.93,1116.22,725.68,1110.83z"/>
				<linearGradient id="SVGID_75_" gradientUnits="userSpaceOnUse" x1="576.1293" y1="1068.6716" x2="633.069" y2="1068.6716">
					<stop  offset="0" style="stop-color:#09005D"/>
					<stop  offset="1" style="stop-color:#1A0F91"/>
				</linearGradient>
				<path class="st81" d="M630.01,1113.21c-0.69,0-1.39-0.24-1.97-0.72c-25.79-21.69-42.37-57.81-51.74-84.28
					c-0.56-1.59,0.27-3.34,1.86-3.9c1.59-0.56,3.34,0.27,3.9,1.86c7.47,21.09,23.88,59.74,49.91,81.65
					c1.29,1.09,1.46,3.01,0.37,4.31C631.75,1112.84,630.88,1113.21,630.01,1113.21z"/>
				<linearGradient id="SVGID_76_" gradientUnits="userSpaceOnUse" x1="517.1498" y1="1115.1725" x2="612.4203" y2="1115.1725">
					<stop  offset="0" style="stop-color:#09005D"/>
					<stop  offset="1" style="stop-color:#1A0F91"/>
				</linearGradient>
				<path class="st82" d="M609.36,1159.84c-0.39,0-0.79-0.08-1.18-0.24c-33.03-13.83-63.5-42.23-90.55-84.39
					c-0.91-1.42-0.5-3.31,0.92-4.22c1.42-0.91,3.31-0.5,4.22,0.92c26.37,41.1,55.9,68.71,87.77,82.06c1.56,0.65,2.29,2.44,1.64,4
					C611.69,1159.14,610.56,1159.84,609.36,1159.84z"/>
				<linearGradient id="SVGID_77_" gradientUnits="userSpaceOnUse" x1="656.1367" y1="1171.1693" x2="780.137" y2="1071.1691">
					<stop  offset="0" style="stop-color:#FF928E"/>
					<stop  offset="1" style="stop-color:#FEB3B1"/>
				</linearGradient>
				<path class="st83" d="M782.74,1056.16c0,0-0.94,3.55-11.14,18.13c-10.2,14.57-21.86,24.78-16.03,7.29
					c5.83-17.49-1.46-23.32-8.39-4.28c-6.94,19.04-13.47,27.59-13.47,27.59c-2.72,2.14-5.39,4.11-8.03,5.93
					c1.25,5.39,4.48,11.79,11.79,17.94c4.17-2.98,6.44-4.93,6.44-4.93s33.52-17.49,36.43-34.98
					C783.26,1071.37,782.74,1056.16,782.74,1056.16z"/>
			</g>
			<g>
				<g>
					<g>
						<path class="st10" d="M780.74,1208.39c-0.76,3.13-72.85,273.5-91.12,342.05c-2.11,7.9,3.78,15.66,11.86,15.66l0,0
							c5.64,0,10.55-3.88,11.92-9.42l80.03-324.46L780.74,1208.39z"/>
					</g>
					<g>
						<path class="st10" d="M820.21,1207.6c0.76,3.13,72.85,274.11,91.12,342.8c2.11,7.92-3.78,15.69-11.86,15.69l0,0
							c-5.64,0-10.55-3.89-11.92-9.44l-80.03-325.18L820.21,1207.6z"/>
					</g>
					<g>
						<path class="st10" d="M823.22,1199.55h-44.9v36.06c0,5.18,4.15,9.38,9.27,9.38h6.16v80.99c0,3.92,3.14,7.1,7.02,7.1l0,0
							c3.88,0,7.02-3.18,7.02-7.1v-80.99h3.13c6.8,0,12.3-5.58,12.3-12.45V1199.55z"/>
					</g>
					<g>
						<path class="st10" d="M1770.2,1208.39c-0.75,3.13-72.85,273.5-91.12,342.05c-2.11,7.9,3.78,15.66,11.86,15.66l0,0
							c5.64,0,10.55-3.88,11.92-9.42l80.03-324.46L1770.2,1208.39z"/>
					</g>
					<g>
						<path class="st10" d="M1809.67,1208.39c0.76,3.13,72.85,273.5,91.12,342.05c2.11,7.9-3.78,15.66-11.86,15.66l0,0
							c-5.64,0-10.55-3.88-11.92-9.42l-80.03-324.46L1809.67,1208.39z"/>
					</g>
					<g>
						<path class="st10" d="M1812.68,1199.55h-44.9v36.06c0,5.18,4.15,9.38,9.27,9.38h6.16v80.99c0,3.92,3.14,7.1,7.02,7.1l0,0
							c3.88,0,7.02-3.18,7.02-7.1v-80.99h3.13c6.8,0,12.3-5.58,12.3-12.45V1199.55z"/>
					</g>
				</g>
				<linearGradient id="SVGID_78_" gradientUnits="userSpaceOnUse" x1="1302.9358" y1="1154.494" x2="1201.1611" y2="1907.0083">
					<stop  offset="0" style="stop-color:#4042E2"/>
					<stop  offset="1" style="stop-color:#4F52FF"/>
				</linearGradient>
				<path class="st84" d="M664.62,1190.89h1260.71c3.5,0,6.56,2.4,7.44,5.83l3.5,13.73c1.26,4.94-2.44,9.75-7.48,9.72l-1267.26-1.5
					c-4.99-0.03-8.62-4.78-7.41-9.68l3.04-12.23C658.03,1193.31,661.1,1190.89,664.62,1190.89z"/>
			</g>
		</g>
		<g>
			<path class="st10" d="M512.61,964.74l-3.78-4.8c-1.06-1.34-0.83-3.28,0.51-4.34c1.34-1.06,3.28-0.83,4.34,0.51
				c0,0,0.02,0.02,0.02,0.03l3.73,4.84c1.03,1.34,0.78,3.26-0.56,4.29C515.55,966.29,513.64,966.05,512.61,964.74z"/>
			<path class="st10" d="M500.35,948.14l-3.34-5.12c-0.97-1.48-0.55-3.47,0.93-4.44c1.48-0.97,3.47-0.55,4.44,0.93
				c0,0.01,0.02,0.03,0.02,0.03l3.28,5.15c0.94,1.48,0.51,3.44-0.97,4.38C503.24,950.01,501.3,949.59,500.35,948.14z"/>
			<path class="st10" d="M489.6,930.51l-2.89-5.39c-0.87-1.62-0.26-3.63,1.36-4.49c1.62-0.87,3.63-0.26,4.49,1.36
				c0,0.01,0.01,0.03,0.02,0.03l2.82,5.42c0.84,1.61,0.21,3.59-1.39,4.43C492.41,932.71,490.45,932.09,489.6,930.51z"/>
			<path class="st10" d="M480.4,912.03l-2.42-5.61c-0.75-1.74,0.05-3.76,1.79-4.51s3.76,0.05,4.51,1.79c0,0.01,0.01,0.03,0.02,0.04
				l2.36,5.64c0.72,1.73-0.09,3.72-1.82,4.45C483.11,914.54,481.13,913.74,480.4,912.03z"/>
			<path class="st10" d="M472.76,892.85l-1.96-5.79c-0.63-1.86,0.37-3.87,2.22-4.5c1.86-0.63,3.87,0.37,4.5,2.22
				c0,0.01,0.01,0.03,0.01,0.04l1.89,5.81c0.6,1.85-0.41,3.83-2.25,4.43C475.35,895.66,473.38,894.67,472.76,892.85z"/>
			<path class="st10" d="M466.69,873.12l-1.5-5.92c-0.5-1.96,0.69-3.95,2.65-4.45s3.95,0.69,4.45,2.65c0,0.01,0.01,0.03,0.01,0.04
				l1.43,5.94c0.47,1.95-0.73,3.91-2.68,4.38C469.13,876.22,467.18,875.04,466.69,873.12z"/>
			<path class="st10" d="M462.16,852.98l-1.05-6.02c-0.36-2.06,1.02-4.01,3.07-4.37c2.06-0.36,4.01,1.02,4.37,3.07
				c0,0.01,0.01,0.03,0.01,0.04l0.98,6.03c0.33,2.04-1.05,3.96-3.09,4.3C464.42,856.36,462.51,855,462.16,852.98z"/>
			<path class="st10" d="M459.13,832.56l-0.61-6.08c-0.21-2.14,1.34-4.05,3.48-4.26c2.14-0.22,4.05,1.34,4.26,3.48
				c0,0.01,0,0.04,0,0.04l0.54,6.09c0.19,2.12-1.38,4-3.5,4.19C461.21,836.21,459.34,834.66,459.13,832.56z"/>
			<path class="st10" d="M457.58,811.98l-0.18-6.11c-0.07-2.21,1.67-4.06,3.89-4.12c2.21-0.07,4.06,1.67,4.12,3.89
				c0,0.01,0,0.04,0,0.05l0.11,6.11c0.04,2.19-1.71,4-3.9,4.04C459.45,815.87,457.65,814.15,457.58,811.98z"/>
			<path class="st10" d="M457.48,791.33l0.24-6.11c0.09-2.27,2.01-4.05,4.28-3.96c2.27,0.09,4.05,2.01,3.96,4.28
				c0,0.01,0,0.04,0,0.05l-0.31,6.1c-0.11,2.25-2.03,3.99-4.29,3.88C459.12,795.46,457.39,793.56,457.48,791.33z"/>
			<path class="st10" d="M458.78,770.72l0.65-6.07c0.25-2.33,2.34-4.01,4.66-3.76c2.33,0.25,4.01,2.34,3.76,4.66
				c0,0.01,0,0.04-0.01,0.05l-0.72,6.06c-0.27,2.3-2.36,3.95-4.67,3.68C460.18,775.07,458.54,773.01,458.78,770.72z"/>
			<path class="st10" d="M461.47,750.25l1.06-6.02c0.42-2.37,2.67-3.95,5.04-3.53c2.37,0.42,3.95,2.67,3.53,5.04l-0.01,0.05
				l-1.12,6.01c-0.44,2.34-2.69,3.89-5.04,3.45C462.6,754.81,461.06,752.58,461.47,750.25z"/>
			<path class="st10" d="M465.56,730l1.47-5.93c0.59-2.36,2.98-3.8,5.34-3.22c2.36,0.59,3.8,2.98,3.22,5.34l-0.01,0.03l-1.51,5.92
				c-0.6,2.35-2.99,3.77-5.34,3.17C466.4,734.71,464.98,732.34,465.56,730z"/>
			<path class="st10" d="M471,710.06l1.86-5.82c0.75-2.35,3.27-3.65,5.62-2.89c2.35,0.75,3.65,3.27,2.89,5.62l-0.01,0.03l-1.9,5.81
				c-0.76,2.34-3.28,3.61-5.61,2.85C471.53,714.89,470.26,712.39,471,710.06z"/>
			<path class="st10" d="M477.77,690.53l2.25-5.68c0.92-2.32,3.55-3.46,5.88-2.54c2.32,0.92,3.46,3.55,2.54,5.88l-0.01,0.02
				l-2.29,5.67c-0.93,2.31-3.56,3.43-5.87,2.5C477.98,695.45,476.86,692.84,477.77,690.53z"/>
			<path class="st10" d="M485.86,671.5l2.64-5.52c1.09-2.29,3.83-3.25,6.12-2.16c2.29,1.09,3.25,3.83,2.16,6.12l-0.01,0.02
				l-2.68,5.5c-1.1,2.27-3.84,3.22-6.11,2.11C485.73,676.49,484.78,673.77,485.86,671.5z"/>
			<path class="st10" d="M495.26,653.06l3.02-5.32c1.27-2.23,4.11-3.01,6.34-1.74c2.23,1.27,3.01,4.11,1.74,6.34l-0.01,0.02
				l-3.05,5.3c-1.28,2.22-4.11,2.98-6.32,1.7C494.77,658.09,494.01,655.27,495.26,653.06z"/>
			<path class="st10" d="M505.96,635.32l3.4-5.08c1.45-2.16,4.37-2.74,6.53-1.29s2.74,4.37,1.29,6.53l-0.02,0.02l-3.43,5.06
				c-1.45,2.14-4.37,2.7-6.51,1.25C505.09,640.36,504.53,637.46,505.96,635.32z"/>
			<path class="st10" d="M517.9,618.42l3.74-4.83c1.61-2.08,4.61-2.46,6.69-0.85c2.08,1.61,2.46,4.61,0.85,6.69l-0.02,0.02
				l-3.77,4.81c-1.62,2.06-4.6,2.43-6.67,0.81C516.67,623.45,516.3,620.48,517.9,618.42z"/>
			<path class="st10" d="M530.93,602.37l4.05-4.58c1.77-2,4.82-2.19,6.81-0.42c2,1.77,2.19,4.82,0.42,6.81l-0.02,0.02l-4.07,4.55
				c-1.77,1.98-4.81,2.15-6.79,0.38C529.36,607.37,529.19,604.35,530.93,602.37z"/>
			<path class="st10" d="M544.97,587.19l4.33-4.31c1.91-1.91,5.01-1.9,6.91,0.01c1.91,1.91,1.9,5.01-0.01,6.91l-0.02,0.02
				l-4.35,4.29c-1.92,1.89-5,1.86-6.89-0.05C543.06,592.15,543.07,589.08,544.97,587.19z"/>
			<path class="st10" d="M559.92,572.92l4.58-4.04c2.05-1.81,5.18-1.61,6.98,0.44c1.81,2.05,1.61,5.18-0.44,6.98l-0.02,0.02
				l-4.61,4.01c-2.05,1.79-5.17,1.57-6.95-0.48C557.68,577.81,557.89,574.71,559.92,572.92z"/>
			<path class="st10" d="M575.71,559.59l4.82-3.76c2.18-1.7,5.33-1.31,7.03,0.87c1.7,2.18,1.31,5.33-0.87,7.03l-0.02,0.02
				l-4.84,3.73c-2.18,1.68-5.32,1.28-7-0.9C573.15,564.4,573.55,561.28,575.71,559.59z"/>
			<path class="st10" d="M592.25,547.22l5.03-3.47c2.3-1.59,5.46-1.02,7.05,1.29c1.59,2.3,1.02,5.46-1.29,7.05l-0.02,0.02
				l-5.05,3.45c-2.3,1.57-5.44,0.98-7.02-1.32C589.38,551.93,589.97,548.8,592.25,547.22z"/>
			<path class="st10" d="M609.47,535.82l5.21-3.19c2.42-1.48,5.57-0.72,7.05,1.7c1.48,2.42,0.72,5.57-1.7,7.05l-0.03,0.02
				l-5.23,3.16c-2.42,1.46-5.56,0.68-7.01-1.73C606.31,540.41,607.07,537.28,609.47,535.82z"/>
			<path class="st10" d="M627.29,525.39l5.38-2.89c2.52-1.35,5.66-0.41,7.01,2.11c1.35,2.52,0.41,5.66-2.11,7.01l-0.01,0.01
				l-5.39,2.88c-2.52,1.34-5.65,0.39-6.99-2.12C623.83,529.86,624.77,526.73,627.29,525.39z"/>
			<path class="st10" d="M645.65,515.97l5.53-2.6c2.59-1.22,5.68-0.1,6.9,2.49c1.22,2.59,0.1,5.68-2.49,6.9l-0.01,0l-5.53,2.59
				c-2.59,1.21-5.68,0.1-6.89-2.49C641.95,520.27,643.06,517.19,645.65,515.97z"/>
			<path class="st10" d="M664.48,507.54l5.66-2.31c2.66-1.09,5.69,0.19,6.78,2.85c1.09,2.66-0.19,5.69-2.85,6.78l-0.01,0l-5.66,2.3
				c-2.66,1.08-5.69-0.2-6.77-2.85C660.56,511.65,661.83,508.62,664.48,507.54z"/>
			<path class="st10" d="M683.72,500.08l5.76-2.02c2.72-0.95,5.69,0.48,6.65,3.19c0.95,2.72-0.48,5.69-3.19,6.65l-0.01,0l-5.76,2.02
				c-2.72,0.95-5.69-0.48-6.64-3.2C679.58,504,681,501.03,683.72,500.08z"/>
			<path class="st10" d="M703.28,493.59l5.86-1.74c2.77-0.82,5.68,0.76,6.5,3.52c0.82,2.77-0.76,5.68-3.52,6.5l-0.01,0l-5.86,1.73
				c-2.77,0.82-5.67-0.76-6.49-3.53C698.94,497.31,700.52,494.4,703.28,493.59z"/>
			<path class="st10" d="M723.16,488.06l5.94-1.45c2.81-0.69,5.65,1.04,6.33,3.85c0.69,2.81-1.03,5.65-3.85,6.33l-0.01,0l-5.95,1.45
				c-2.81,0.68-5.64-1.04-6.32-3.85C718.63,491.58,720.35,488.75,723.16,488.06z"/>
			<path class="st10" d="M743.28,483.51l6-1.16c2.85-0.55,5.6,1.31,6.15,4.16c0.55,2.85-1.31,5.6-4.16,6.15l-0.01,0l-6,1.16
				c-2.85,0.55-5.6-1.31-6.14-4.16C738.57,486.81,740.43,484.06,743.28,483.51z"/>
			<path class="st10" d="M763.58,479.93l6.05-0.87c2.88-0.42,5.55,1.58,5.96,4.46c0.42,2.88-1.58,5.55-4.46,5.96l-0.01,0l-6.05,0.87
				c-2.88,0.41-5.54-1.58-5.95-4.46C758.72,483,760.71,480.34,763.58,479.93z"/>
			<path class="st10" d="M784.04,477.32l6.08-0.58c2.9-0.28,5.48,1.85,5.76,4.75s-1.85,5.48-4.75,5.76l-0.01,0l-6.08,0.58
				c-2.9,0.27-5.47-1.85-5.75-4.75C779.02,480.17,781.14,477.6,784.04,477.32z"/>
			<path class="st10" d="M804.59,475.7l6.11-0.29c2.92-0.14,5.4,2.11,5.53,5.03c0.14,2.92-2.11,5.4-5.03,5.53l-0.01,0l-6.11,0.28
				c-2.92,0.14-5.39-2.12-5.52-5.03C799.43,478.31,801.68,475.83,804.59,475.7z"/>
			<path class="st10" d="M825.21,475.07l6.15,0.01c2.93,0,5.3,2.38,5.3,5.31c0,2.93-2.38,5.3-5.31,5.3h-0.01l-0.05,0l-6.07-0.01
				l-0.03,0c-2.93-0.01-5.29-2.38-5.29-5.31C819.91,477.43,822.28,475.06,825.21,475.07z"/>
			<path class="st10" d="M845.82,475.41l6.1,0.28c2.93,0.13,5.2,2.62,5.07,5.55c-0.13,2.93-2.62,5.2-5.55,5.07l-0.01,0l-6.1-0.28
				c-2.93-0.14-5.19-2.62-5.06-5.55C840.41,477.54,842.89,475.27,845.82,475.41z"/>
			<path class="st10" d="M866.38,476.65l6.09,0.54c2.93,0.26,5.1,2.84,4.84,5.77c-0.26,2.93-2.84,5.1-5.77,4.84l-0.01,0l-6.09-0.54
				c-2.93-0.26-5.09-2.85-4.83-5.78C860.87,478.55,863.45,476.39,866.38,476.65z"/>
			<path class="st10" d="M886.86,478.76l6.06,0.79c2.92,0.38,4.99,3.06,4.6,5.99c-0.38,2.92-3.06,4.99-5.98,4.6l-0.01,0l-6.06-0.8
				c-2.92-0.38-4.98-3.06-4.59-5.99C881.26,480.44,883.94,478.38,886.86,478.76z"/>
			<path class="st10" d="M907.23,481.71l6.02,1.03c2.91,0.5,4.87,3.27,4.37,6.18c-0.5,2.91-3.27,4.87-6.18,4.37l-0.01,0l-6.02-1.04
				c-2.91-0.5-4.86-3.27-4.36-6.18C901.56,483.16,904.32,481.21,907.23,481.71z"/>
			<path class="st10" d="M927.46,485.48l5.98,1.27c2.9,0.62,4.75,3.46,4.13,6.36c-0.62,2.9-3.46,4.75-6.36,4.13l-0.01,0l-5.98-1.28
				c-2.9-0.62-4.74-3.47-4.12-6.36C921.72,486.71,924.56,484.86,927.46,485.48z"/>
			<path class="st10" d="M947.52,490.02l5.93,1.49c2.88,0.73,4.63,3.65,3.9,6.53c-0.73,2.88-3.65,4.63-6.53,3.9l-0.01,0l-5.92-1.5
				c-2.88-0.73-4.62-3.65-3.89-6.53C941.73,491.03,944.65,489.29,947.52,490.02z"/>
			<path class="st10" d="M967.4,495.3l5.87,1.71c2.86,0.83,4.5,3.82,3.67,6.68c-0.83,2.86-3.82,4.5-6.68,3.67l-0.01,0l-5.86-1.72
				c-2.86-0.84-4.49-3.83-3.66-6.68C961.56,496.11,964.54,494.47,967.4,495.3z"/>
			<path class="st10" d="M987.06,501.3l5.8,1.91c2.83,0.93,4.37,3.99,3.44,6.82c-0.93,2.83-3.99,4.37-6.82,3.44l-0.01,0l-5.8-1.92
				c-2.83-0.94-4.37-3.99-3.43-6.82C981.18,501.9,984.23,500.36,987.06,501.3z"/>
			<path class="st10" d="M1006.5,507.97l5.73,2.12c2.8,1.04,4.23,4.14,3.19,6.94c-1.04,2.8-4.13,4.23-6.93,3.2l-5.74-2.11
				c-2.81-1.03-4.25-4.14-3.22-6.94c1.03-2.81,4.14-4.25,6.94-3.22L1006.5,507.97z"/>
			<path class="st10" d="M1025.68,515.33l5.65,2.31c2.75,1.12,4.07,4.26,2.94,7c-1.12,2.75-4.24,4.07-6.99,2.95l-5.66-2.29
				c-2.76-1.11-4.09-4.25-2.97-7.01c1.12-2.76,4.25-4.09,7.01-2.97L1025.68,515.33z"/>
			<path class="st10" d="M1044.6,523.3l5.58,2.49c2.7,1.2,3.91,4.36,2.71,7.06c-1.2,2.7-4.35,3.91-7.04,2.71l-5.59-2.47
				c-2.7-1.19-3.93-4.36-2.73-7.06c1.19-2.7,4.36-3.93,7.06-2.73L1044.6,523.3z"/>
			<path class="st10" d="M1063.26,531.85l5.51,2.66c2.64,1.28,3.75,4.45,2.48,7.09s-4.44,3.76-7.08,2.48l-5.51-2.64
				c-2.65-1.27-3.77-4.45-2.5-7.1c1.27-2.65,4.45-3.77,7.1-2.5L1063.26,531.85z"/>
			<path class="st10" d="M1081.66,540.97l5.43,2.82c2.59,1.35,3.6,4.54,2.25,7.13c-1.35,2.59-4.52,3.61-7.11,2.26l-5.44-2.8
				c-2.6-1.34-3.62-4.53-2.28-7.13s4.53-3.62,7.13-2.28L1081.66,540.97z"/>
			<path class="st10" d="M1099.77,550.62l5.35,2.98c2.54,1.41,3.45,4.61,2.04,7.15c-1.41,2.54-4.6,3.45-7.13,2.04l-5.36-2.96
				c-2.54-1.41-3.47-4.61-2.06-7.15c1.41-2.54,4.61-3.47,7.15-2.06L1099.77,550.62z"/>
			<path class="st10" d="M1117.61,560.77l5.26,3.12c2.48,1.47,3.3,4.68,1.83,7.16c-1.47,2.48-4.67,3.31-7.15,1.83l-5.27-3.11
				c-2.49-1.47-3.32-4.68-1.85-7.17c1.47-2.49,4.68-3.32,7.17-1.85L1117.61,560.77z"/>
			<path class="st10" d="M1135.15,571.41l5.18,3.26c2.43,1.53,3.15,4.74,1.62,7.17c-1.53,2.43-4.73,3.16-7.15,1.63l-5.19-3.25
				c-2.44-1.53-3.17-4.74-1.65-7.17c1.53-2.44,4.74-3.17,7.17-1.65L1135.15,571.41z"/>
			<path class="st10" d="M1152.4,582.52l5.08,3.4c2.37,1.58,3.01,4.79,1.42,7.16c-1.58,2.37-4.78,3.02-7.15,1.43l-5.09-3.38
				c-2.38-1.58-3.03-4.79-1.45-7.17c1.58-2.38,4.79-3.03,7.17-1.45L1152.4,582.52z"/>
			<path class="st10" d="M1169.34,594.06l4.99,3.52c2.32,1.63,2.87,4.84,1.24,7.16c-1.63,2.32-4.83,2.88-7.15,1.25l-5-3.51
				c-2.33-1.63-2.89-4.84-1.26-7.17c1.63-2.33,4.84-2.89,7.17-1.26L1169.34,594.06z"/>
			<path class="st10" d="M1185.98,605.99l4.91,3.62c2.27,1.67,2.75,4.87,1.08,7.14s-4.86,2.76-7.13,1.09l-4.92-3.61
				c-2.28-1.67-2.77-4.87-1.1-7.15c1.67-2.28,4.87-2.77,7.15-1.1L1185.98,605.99z"/>
			<path class="st10" d="M1202.36,618.24l4.85,3.71c2.23,1.7,2.65,4.89,0.95,7.12c-1.7,2.23-4.88,2.66-7.11,0.96l-4.86-3.7
				c-2.24-1.7-2.67-4.89-0.97-7.13s4.89-2.67,7.13-0.97L1202.36,618.24z"/>
			<path class="st10" d="M1218.52,630.73l4.8,3.78c2.19,1.72,2.57,4.9,0.84,7.09c-1.72,2.19-4.89,2.58-7.08,0.85l-4.81-3.77
				c-2.2-1.72-2.59-4.9-0.86-7.1c1.72-2.2,4.9-2.59,7.1-0.86L1218.52,630.73z"/>
			<path class="st10" d="M1234.5,643.43l4.76,3.83c2.16,1.74,2.5,4.9,0.76,7.05c-1.74,2.16-4.88,2.51-7.04,0.77l-4.77-3.82
				c-2.17-1.73-2.52-4.9-0.79-7.06c1.73-2.17,4.9-2.52,7.06-0.79L1234.5,643.43z"/>
			<path class="st10" d="M1250.36,656.26l4.73,3.86c2.13,1.74,2.45,4.88,0.71,7.02c-1.74,2.13-4.87,2.46-7.01,0.72l-4.74-3.85
				c-2.14-1.74-2.47-4.89-0.73-7.03c1.74-2.14,4.89-2.47,7.03-0.73L1250.36,656.26z"/>
			<path class="st10" d="M1266.14,669.17l4.72,3.88c2.12,1.74,2.42,4.86,0.68,6.98s-4.85,2.43-6.97,0.69l-4.73-3.87
				c-2.12-1.74-2.44-4.86-0.7-6.99c1.74-2.12,4.86-2.44,6.99-0.71L1266.14,669.17z"/>
			<path class="st10" d="M1281.87,682.11l4.72,3.88c2.1,1.73,2.41,4.83,0.68,6.94c-1.73,2.1-4.82,2.42-6.93,0.69l-4.74-3.87
				c-2.11-1.72-2.43-4.83-0.7-6.95s4.83-2.43,6.95-0.7L1281.87,682.11z"/>
			<path class="st10" d="M1297.62,695.01l4.74,3.86c2.1,1.71,2.41,4.79,0.7,6.89c-1.71,2.1-4.78,2.42-6.88,0.71l-4.75-3.85
				c-2.11-1.71-2.43-4.8-0.73-6.9c1.71-2.11,4.8-2.43,6.9-0.73L1297.62,695.01z"/>
			<path class="st10" d="M1313.42,707.82l4.77,3.82c2.1,1.68,2.43,4.75,0.75,6.85c-1.68,2.1-4.74,2.44-6.83,0.76l-4.78-3.81
				c-2.11-1.68-2.45-4.75-0.77-6.86c1.68-2.11,4.75-2.45,6.86-0.77L1313.42,707.82z"/>
			<path class="st10" d="M1329.31,720.47l4.81,3.77c2.1,1.65,2.47,4.69,0.82,6.8c-1.65,2.1-4.68,2.48-6.78,0.83l-4.82-3.76
				c-2.11-1.65-2.49-4.69-0.84-6.8c1.65-2.11,4.69-2.49,6.8-0.84L1329.31,720.47z"/>
			<path class="st10" d="M1345.35,732.92l4.86,3.69l0.01,0.01c2.11,1.61,2.53,4.63,0.92,6.74c-1.61,2.11-4.62,2.53-6.73,0.93
				l-4.89-3.69c-2.12-1.6-2.54-4.63-0.94-6.75c1.6-2.12,4.63-2.54,6.75-0.94l0.01,0.01L1345.35,732.92z"/>
			<path class="st10" d="M1361.56,745.09l4.93,3.61c2.13,1.56,2.6,4.55,1.04,6.68c-1.56,2.13-4.54,2.6-6.67,1.05l-4.94-3.59
				c-2.14-1.55-2.61-4.55-1.06-6.69c1.55-2.14,4.55-2.61,6.69-1.06L1361.56,745.09z"/>
			<path class="st10" d="M1378.01,756.93l5.01,3.5c2.15,1.5,2.68,4.46,1.18,6.61c-1.5,2.15-4.45,2.69-6.6,1.19l-5.02-3.48
				c-2.16-1.5-2.7-4.46-1.2-6.62c1.5-2.16,4.46-2.7,6.62-1.2L1378.01,756.93z"/>
			<path class="st10" d="M1394.72,768.37l5.1,3.37c2.17,1.44,2.77,4.36,1.33,6.54c-1.44,2.17-4.35,2.78-6.52,1.34l-5.11-3.35
				c-2.18-1.43-2.79-4.36-1.36-6.55c1.43-2.18,4.36-2.79,6.55-1.36L1394.72,768.37z"/>
			<path class="st10" d="M1411.69,779.38l5.19,3.23c2.18,1.36,2.85,4.23,1.49,6.41c-1.35,2.17-4.2,2.84-6.38,1.51l-5.21-3.19
				c-2.2-1.35-2.89-4.22-1.54-6.42c1.35-2.2,4.22-2.89,6.42-1.54L1411.69,779.38z"/>
			<path class="st10" d="M1428.97,789.88l5.29,3.06c2.19,1.27,2.94,4.07,1.67,6.26c-1.26,2.18-4.05,2.93-6.24,1.69l-5.31-3.03
				c-2.21-1.26-2.98-4.07-1.72-6.28c1.26-2.21,4.07-2.98,6.28-1.72L1428.97,789.88z"/>
			<path class="st10" d="M1446.58,799.78l5.4,2.87c2.2,1.17,3.04,3.9,1.87,6.11c-1.17,2.19-3.88,3.03-6.08,1.88l-5.41-2.83
				c-2.22-1.16-3.08-3.9-1.92-6.12c1.16-2.22,3.9-3.08,6.12-1.92L1446.58,799.78z"/>
			<path class="st10" d="M1464.54,809.02l5.51,2.66c2.21,1.07,3.14,3.72,2.08,5.94c-1.06,2.2-3.7,3.13-5.91,2.09l-5.53-2.62
				c-2.23-1.06-3.18-3.72-2.12-5.95c1.06-2.23,3.72-3.18,5.95-2.12L1464.54,809.02z"/>
			<path class="st10" d="M1482.85,817.52l5.61,2.41c2.22,0.95,3.25,3.53,2.3,5.75c-0.95,2.21-3.51,3.24-5.72,2.31l-5.63-2.37
				c-2.24-0.94-3.29-3.52-2.35-5.76c0.94-2.24,3.52-3.29,5.76-2.35L1482.85,817.52z"/>
			<path class="st10" d="M1501.5,825.17l5.72,2.14c2.23,0.83,3.36,3.32,2.53,5.55c-0.83,2.22-3.3,3.35-5.52,2.54l-5.73-2.1
				c-2.25-0.82-3.4-3.31-2.57-5.56c0.82-2.25,3.31-3.4,5.56-2.57L1501.5,825.17z"/>
			<path class="st10" d="M1520.49,831.9l5.82,1.85c2.23,0.71,3.47,3.09,2.76,5.33c-0.71,2.22-3.07,3.46-5.3,2.77l-5.83-1.81
				c-2.25-0.7-3.51-3.08-2.81-5.33c0.7-2.25,3.08-3.51,5.33-2.81L1520.49,831.9z"/>
			<path class="st10" d="M1539.79,837.63l5.91,1.53c2.23,0.58,3.57,2.85,3,5.09c-0.57,2.22-2.84,3.56-5.06,3.01l-5.93-1.49
				c-2.25-0.56-3.61-2.84-3.05-5.09c0.56-2.25,2.84-3.61,5.09-3.05L1539.79,837.63z"/>
			<path class="st10" d="M1559.36,842.25l6,1.16c2.23,0.43,3.68,2.58,3.25,4.81c-0.43,2.22-2.57,3.67-4.78,3.26l-6.01-1.12
				c-2.24-0.42-3.72-2.57-3.3-4.81c0.42-2.24,2.57-3.72,4.81-3.3L1559.36,842.25z"/>
			<path class="st10" d="M1579.18,845.63l6.06,0.77c2.21,0.28,3.78,2.31,3.49,4.52c-0.28,2.2-2.29,3.76-4.49,3.5l-6.07-0.73
				c-2.23-0.27-3.81-2.29-3.54-4.52c0.27-2.23,2.29-3.81,4.52-3.54L1579.18,845.63z"/>
			<path class="st10" d="M1599.17,847.73l6.1,0.38c2.19,0.14,3.85,2.02,3.72,4.21c-0.14,2.18-2.01,3.84-4.18,3.72l-6.1-0.34
				c-2.2-0.12-3.89-2.01-3.76-4.21c0.12-2.2,2.01-3.89,4.21-3.76L1599.17,847.73z"/>
			<path class="st10" d="M1619.26,848.52l6.11-0.03c2.16-0.01,3.91,1.73,3.92,3.88c0.01,2.15-1.72,3.9-3.86,3.92l-6.11,0.07
				c-2.17,0.02-3.94-1.71-3.97-3.88c-0.02-2.17,1.71-3.94,3.88-3.97L1619.26,848.52z"/>
			<path class="st10" d="M1639.35,847.94l6.09-0.45c2.11-0.16,3.95,1.43,4.11,3.54c0.16,2.1-1.42,3.94-3.51,4.11l-6.09,0.49
				c-2.12,0.17-3.98-1.41-4.15-3.53c-0.17-2.12,1.41-3.98,3.53-4.15L1639.35,847.94z"/>
			<path class="st10" d="M1659.34,845.95l6.04-0.9c2.06-0.31,3.97,1.11,4.28,3.17c0.3,2.05-1.1,3.96-3.15,4.28l-6.04,0.94
				c-2.07,0.32-4-1.09-4.32-3.16c-0.32-2.07,1.09-4,3.16-4.32L1659.34,845.95z"/>
			<path class="st10" d="M1679.11,842.48l5.96-1.36c1.99-0.46,3.97,0.79,4.43,2.78c0.45,1.98-0.78,3.96-2.76,4.42l-5.95,1.4
				c-2,0.47-4-0.77-4.47-2.77c-0.47-2,0.77-4,2.77-4.47L1679.11,842.48z"/>
			<path class="st10" d="M1698.54,837.46l5.83-1.84c1.91-0.61,3.95,0.45,4.56,2.37c0.6,1.9-0.45,3.93-2.34,4.55l-5.81,1.88
				c-1.92,0.62-3.98-0.43-4.6-2.35c-0.62-1.92,0.43-3.98,2.35-4.6L1698.54,837.46z"/>
			<path class="st10" d="M1717.47,830.84l5.65-2.34c1.81-0.75,3.89,0.11,4.64,1.93c0.75,1.8-0.1,3.87-1.9,4.63l-5.63,2.39
				c-1.82,0.77-3.92-0.08-4.7-1.9c-0.77-1.82,0.08-3.92,1.9-4.7L1717.47,830.84z"/>
			<path class="st10" d="M1735.74,822.61l5.41-2.84c1.68-0.88,3.76-0.23,4.65,1.45c0.88,1.67,0.24,3.74-1.42,4.63l-5.38,2.9
				c-1.69,0.91-3.8,0.28-4.71-1.41c-0.91-1.69-0.28-3.8,1.41-4.71C1735.71,822.63,1735.74,822.62,1735.74,822.61z"/>
			<path class="st10" d="M1753.17,812.72l5.11-3.34c1.54-1.01,3.6-0.58,4.61,0.96c1,1.53,0.58,3.57-0.93,4.59l-5.07,3.4
				c-1.54,1.03-3.63,0.62-4.67-0.92c-1.03-1.54-0.62-3.63,0.92-4.67C1753.14,812.74,1753.16,812.73,1753.17,812.72z"/>
			<path class="st10" d="M1769.51,801.19l4.73-3.87c1.38-1.12,3.4-0.92,4.53,0.45c1.12,1.37,0.92,3.37-0.43,4.5l-4.69,3.92
				c-1.38,1.15-3.43,0.97-4.58-0.41c-1.15-1.38-0.97-3.43,0.41-4.58C1769.49,801.21,1769.51,801.2,1769.51,801.19z"/>
			<path class="st10" d="M1784.49,787.93l4.27-4.37c1.2-1.23,3.16-1.25,4.39-0.05c1.22,1.19,1.25,3.14,0.08,4.37l-4.22,4.42
				c-1.2,1.25-3.18,1.3-4.44,0.1s-1.3-3.18-0.1-4.44C1784.47,787.95,1784.49,787.93,1784.49,787.93z"/>
			<path class="st10" d="M1797.94,773.08l3.78-4.8c1.02-1.3,2.9-1.52,4.2-0.5c1.29,1.01,1.52,2.88,0.52,4.17l-3.72,4.85
				c-1.02,1.33-2.92,1.57-4.24,0.56c-1.33-1.02-1.57-2.92-0.56-4.24C1797.93,773.1,1797.94,773.09,1797.94,773.08z"/>
			<path class="st10" d="M1809.75,756.87l3.25-5.17c0.85-1.35,2.62-1.75,3.97-0.91c1.34,0.84,1.75,2.6,0.92,3.94l-3.19,5.21
				c-0.84,1.37-2.63,1.8-4.01,0.96c-1.37-0.84-1.8-2.63-0.96-4.01C1809.73,756.89,1809.75,756.88,1809.75,756.87z"/>
			<path class="st10" d="M1819.8,739.5l2.69-5.49c0.67-1.37,2.33-1.94,3.7-1.27c1.36,0.67,1.93,2.31,1.28,3.67l-2.63,5.52
				c-0.67,1.4-2.34,1.99-3.73,1.32c-1.4-0.67-1.99-2.34-1.32-3.73C1819.79,739.53,1819.8,739.51,1819.8,739.5z"/>
			<path class="st10" d="M1827.97,721.17l2.09-5.74c0.5-1.38,2.02-2.09,3.4-1.59c1.37,0.5,2.08,2,1.6,3.37l-2.03,5.76
				c-0.49,1.4-2.03,2.14-3.43,1.64c-1.4-0.49-2.14-2.03-1.64-3.43C1827.96,721.19,1827.97,721.17,1827.97,721.17z"/>
			<path class="st10" d="M1834.11,702.06l1.44-5.94c0.33-1.36,1.7-2.2,3.07-1.87c1.35,0.33,2.19,1.69,1.88,3.04l-1.38,5.95
				c-0.32,1.39-1.7,2.25-3.09,1.93c-1.39-0.32-2.25-1.7-1.93-3.09C1834.11,702.08,1834.11,702.06,1834.11,702.06z"/>
			<path class="st10" d="M1838.06,682.38l0.74-6.07c0.16-1.33,1.37-2.28,2.7-2.12c1.32,0.16,2.27,1.36,2.12,2.68l-0.67,6.07
				c-0.15,1.35-1.37,2.33-2.72,2.18c-1.35-0.15-2.33-1.37-2.18-2.72C1838.06,682.41,1838.06,682.39,1838.06,682.38z"/>
			<path class="st10" d="M1839.63,662.38l-0.03-6.11c-0.01-1.28,1.03-2.32,2.31-2.33c1.27-0.01,2.3,1.01,2.32,2.28l0.09,6.11
				c0.02,1.3-1.02,2.36-2.31,2.38c-1.3,0.02-2.36-1.02-2.38-2.31C1839.63,662.4,1839.63,662.39,1839.63,662.38z"/>
			<path class="st10" d="M1838.63,642.35l-0.84-6.05c-0.17-1.2,0.67-2.32,1.88-2.48c1.2-0.17,2.3,0.66,2.48,1.85l0.91,6.04
				c0.18,1.22-0.66,2.36-1.88,2.54c-1.22,0.18-2.36-0.66-2.54-1.88C1838.63,642.37,1838.63,642.36,1838.63,642.35z"/>
			<path class="st10" d="M1834.91,622.65l-1.68-5.87c-0.32-1.11,0.32-2.27,1.43-2.59c1.1-0.32,2.25,0.32,2.58,1.41l1.75,5.85
				c0.34,1.12-0.3,2.31-1.43,2.64c-1.12,0.34-2.31-0.3-2.64-1.43C1834.92,622.67,1834.91,622.66,1834.91,622.65z"/>
		</g>
	</g>
</g>
</svg>
